<?xml version="1.0" standalone="no"?>
<!DOCTYPE svg PUBLIC "-//W3C//DTD SVG 20010904//EN"
 "http://www.w3.org/TR/2001/REC-SVG-20010904/DTD/svg10.dtd">
<svg version="1.0" xmlns="http://www.w3.org/2000/svg"
 width="700.000000pt" height="700.000000pt" viewBox="0 0 700.000000 700.000000"
 preserveAspectRatio="xMidYMid meet">
<metadata>
Created by potrace 1.14, written by Peter Selinger 2001-2017
</metadata>
<g transform="translate(0.000000,700.000000) scale(0.100000,-0.100000)"
fill="#000000" stroke="none">
<path d="M1368 6156 c-64 -17 -94 -39 -120 -89 l-23 -42 -3 -1173 c-1 -810 1
-1186 8 -1213 15 -53 70 -113 118 -127 29 -9 247 -12 796 -12 740 0 758 0 796
20 78 40 116 136 86 215 -23 59 -72 100 -136 114 -34 7 -254 11 -655 11 l-605
0 0 410 0 410 623 0 623 0 46 29 c117 75 114 234 -7 303 l-40 23 -622 3 -623
3 0 384 0 385 633 0 633 0 44 23 c109 54 129 190 41 278 -20 20 -54 42 -76 48
-60 16 -1474 14 -1537 -3z"/>
<path d="M4803 3470 c-516 -54 -928 -348 -1118 -799 -81 -193 -109 -339 -109
-576 0 -292 55 -507 188 -733 257 -437 763 -688 1293 -642 273 24 472 101 675
261 106 84 162 148 178 203 40 142 -93 276 -236 237 -28 -7 -62 -32 -112 -81
-118 -114 -219 -175 -372 -226 -80 -27 -95 -28 -255 -28 -156 0 -177 3 -260
28 -280 85 -494 281 -605 553 -113 278 -105 633 19 899 121 258 316 427 588
511 80 24 103 27 253 27 182 1 232 -8 367 -69 96 -44 152 -84 249 -176 60 -57
92 -80 124 -89 148 -40 279 91 240 238 -25 89 -241 274 -414 352 -200 91 -468
133 -693 110z"/>
</g>
</svg>
