<svg width="317" height="205" viewBox="0 0 317 205" fill="none" xmlns="http://www.w3.org/2000/svg">
<g clip-path="url(#clip0)">
<path fill-rule="evenodd" clip-rule="evenodd" d="M248.58 155.298C246.259 156.153 243.14 157.302 238.934 159.148L238.93 159.15C237.185 159.916 235.233 160.772 233.047 161.761C224.265 165.733 217.982 168.007 213.081 169.78C210.121 170.851 207.665 171.74 205.466 172.711C205.4 172.74 205.367 172.754 205.339 172.759C205.311 172.764 205.244 172.76 205.109 172.751C204.659 172.72 203.939 173.004 203.23 173.283C202.506 173.568 201.795 173.848 201.398 173.783C201.023 173.722 200.488 173.887 200.072 174.015C199.811 174.095 199.596 174.161 199.496 174.149C198.453 174.018 195.311 174.519 193.948 174.751C193.655 174.801 193.508 174.826 193.423 174.743C193.338 174.66 193.36 174.514 193.403 174.224C193.774 171.75 195.079 162.746 195.06 158.839C195.059 158.562 195.163 158.161 195.27 157.748C195.286 157.686 195.302 157.624 195.318 157.561C195.387 157.291 195.421 157.156 195.339 157.063C195.257 156.971 195.115 156.99 194.832 157.028C193.859 157.159 193.185 157.278 193.191 157.434L192.957 153.634C193.003 154.212 199.87 154.543 201.382 154.609C201.384 154.609 201.385 154.609 201.393 154.61C201.525 154.624 201.624 154.763 201.594 154.893C201.592 154.9 201.704 154.526 201.659 154.676C201.444 155.397 201.336 155.758 201.334 155.766C201.281 156.006 201.329 156.063 201.575 156.049C201.583 156.048 201.753 156.027 202.093 155.983C202.325 155.953 202.548 155.919 202.759 155.881C203.603 155.728 204.08 155.263 204.333 154.897C204.457 154.719 204.519 154.629 204.466 154.511C204.414 154.392 204.291 154.375 204.046 154.341C202.098 154.071 195.531 153.119 195.549 152.538C195.655 149.192 195.899 145.281 196.185 140.695C196.399 137.273 196.421 132.997 196.223 130.273C196.204 130.006 196.194 129.873 196.267 129.799C196.34 129.724 196.477 129.73 196.752 129.743C198.033 129.802 199.946 129.651 201.193 129.387C201.468 129.329 201.605 129.3 201.625 129.134C201.644 128.968 201.524 128.911 201.283 128.797C200.757 128.547 200.037 128.302 199.344 128.067C198.188 127.673 197.107 127.306 197.135 126.986C197.158 126.713 197.145 126.44 197.133 126.171C197.12 125.899 197.108 125.631 197.133 125.367C197.142 125.265 197.765 125.429 198.652 125.663L198.652 125.663C199.133 125.789 199.691 125.937 200.272 126.073C200.732 126.181 200.962 126.235 201.042 126.064C201.122 125.894 200.943 125.758 200.584 125.488C199.622 124.761 198.368 124.215 197.598 123.88C197.171 123.694 196.893 123.573 196.898 123.522C196.911 123.392 196.936 123.187 196.96 122.983C197.009 122.581 197.057 122.186 197.013 122.393C197.359 120.744 197.749 118.697 198.167 116.505C199.148 111.358 200.282 105.407 201.364 101.905C202.046 99.6988 202.955 98.2111 203.386 97.5815C203.494 97.4239 203.548 97.3451 203.641 97.3265C203.733 97.308 203.817 97.3625 203.985 97.4715C204.108 97.5509 204.223 97.6255 204.333 97.6964C205.564 98.4926 206.066 98.8171 207.736 100.273C207.986 100.491 208.361 100.788 208.842 101.155C208.924 101.218 208.965 101.249 208.989 101.293C209.012 101.337 209.016 101.388 209.024 101.491L209.101 102.519C209.12 102.781 209.13 102.912 209.22 102.975C209.311 103.038 209.437 103.003 209.69 102.931L210.623 102.669C210.684 102.652 210.715 102.643 210.746 102.643C210.776 102.643 210.806 102.648 210.834 102.659C210.863 102.671 210.888 102.69 210.94 102.728C214.899 105.676 221.489 110.581 227.19 116.038C227.293 116.137 226.993 116.653 226.691 117.172C226.386 117.697 226.08 118.225 226.186 118.327C226.323 118.458 226.862 118.175 227.406 117.891C227.957 117.601 228.512 117.31 228.655 117.448C229.939 118.688 231.298 120.014 232.739 121.418C234.144 122.788 235.626 124.234 237.192 125.75C239.374 127.863 241.357 129.689 243.13 131.308C243.356 131.515 242.08 132.091 240.403 132.848C238.904 133.524 237.084 134.345 235.731 135.177C235.223 135.489 234.968 135.645 235.047 135.83C235.125 136.014 235.428 135.935 236.033 135.777C238.039 135.255 240.581 134.708 242.615 134.356C242.085 134.391 241.566 134.436 241.149 134.475C240.757 134.511 240.561 134.529 240.491 134.384C240.421 134.239 240.546 134.108 240.797 133.845C241.055 133.574 241.398 133.285 241.814 133.093C242.716 132.678 243.855 132.328 244.791 132.04C245.747 131.746 246.492 131.517 246.558 131.349L245.77 133.44C245.743 133.51 245.73 133.546 245.731 133.593C245.733 133.643 245.731 133.634 245.752 133.68C245.771 133.723 245.891 133.833 246.13 134.054C250.678 138.261 253.202 141.492 255.077 143.907C256.506 145.748 259.124 148.044 260.289 149.032C260.552 149.255 260.683 149.366 260.665 149.493C260.646 149.621 260.489 149.69 260.174 149.829C258.651 150.502 255.051 152.132 253.478 153.187C252.46 153.869 250.928 154.434 248.58 155.298ZM209.757 144.061L214.143 141.17C214.186 141.142 214.207 141.128 214.231 141.118C214.255 141.109 214.28 141.106 214.331 141.098L218.942 140.421L214.484 141.714C214.464 141.72 214.454 141.723 214.444 141.727C214.435 141.731 214.425 141.735 214.407 141.745L209.757 144.061ZM236.89 158.954C238.168 158.398 238.807 158.12 238.749 157.923C238.69 157.726 238.003 157.84 236.628 158.07L236.541 158.084C236.509 158.09 236.493 158.092 236.478 158.097C236.463 158.102 236.449 158.108 236.42 158.122L221.567 165.082L218.414 166.997L236.89 158.954Z" fill="white"/>
<path fill-rule="evenodd" clip-rule="evenodd" d="M100.248 56.1613C98.8263 54.1373 96.9158 51.4181 94.0516 47.8263L94.0489 47.8229C92.8608 46.333 91.5317 44.6662 90.0151 42.8073C83.9218 35.3389 80.112 29.8506 77.1396 25.5686C75.3449 22.9832 73.8555 20.8375 72.3529 18.9612C72.3076 18.9046 72.2849 18.8763 72.2731 18.8507C72.2612 18.8251 72.2483 18.7587 72.2224 18.626C72.1364 18.1841 71.6772 17.5604 71.2257 16.9471C70.7644 16.3205 70.3111 15.7048 70.2718 15.305C70.2347 14.9268 69.9384 14.4521 69.7076 14.0823C69.5632 13.8508 69.4444 13.6604 69.4308 13.5605C69.2889 12.5187 67.9988 9.61027 67.4249 8.35295C67.3011 8.08177 67.2392 7.94618 67.2977 7.843C67.3562 7.73982 67.5022 7.72354 67.7943 7.69099C70.2805 7.41383 79.3178 6.36388 83.0889 5.34314C83.3557 5.2709 83.7705 5.2684 84.1965 5.26583C84.2609 5.26544 84.3256 5.26505 84.39 5.26442C84.6689 5.26168 84.8084 5.26031 84.8765 5.1573C84.9446 5.05429 84.8898 4.92207 84.7802 4.65764C84.4044 3.75099 84.1158 3.13025 83.9664 3.17605L87.5796 1.97407C87.033 2.16718 88.4753 8.88948 88.7996 10.3676C88.8 10.3697 88.8003 10.3707 88.8014 10.3781C88.8215 10.5098 88.7127 10.6409 88.5796 10.6454C88.5721 10.6457 88.9629 10.6576 88.8066 10.6528C88.0536 10.6299 87.6772 10.6184 87.669 10.6187C87.4232 10.6285 87.3808 10.6896 87.4575 10.9233C87.46 10.9311 87.5249 11.09 87.6546 11.4077C87.7428 11.6237 87.8325 11.8304 87.9237 12.0247C88.2882 12.8013 88.8601 13.1436 89.2787 13.2942C89.483 13.3676 89.5851 13.4044 89.6866 13.3234C89.788 13.2424 89.7729 13.1193 89.7427 12.8733C89.5033 10.922 88.7377 4.33 89.3038 4.19863C92.5656 3.44171 96.408 2.67384 100.913 1.77353C104.276 1.10157 108.414 0.0259454 110.997 -0.865301C111.249 -0.952316 111.375 -0.995822 111.466 -0.944614C111.557 -0.893406 111.586 -0.758878 111.644 -0.489818C111.916 0.763168 112.553 2.57353 113.128 3.711C113.255 3.96166 113.318 4.08699 113.484 4.06333C113.649 4.03966 113.673 3.90852 113.722 3.64623C113.828 3.0739 113.88 2.3152 113.93 1.58534C114.013 0.36625 114.091 -0.772416 114.407 -0.827758C114.677 -0.875171 114.937 -0.957333 115.194 -1.03858C115.453 -1.12054 115.71 -1.20156 115.971 -1.24507C116.073 -1.26197 116.074 -0.618187 116.076 0.298957L116.076 0.299561C116.076 0.796615 116.077 1.37393 116.095 1.96984C116.108 2.44257 116.115 2.67894 116.301 2.71248C116.486 2.74602 116.571 2.53783 116.741 2.12145C117.195 1.00488 117.401 -0.34723 117.528 -1.17684C117.598 -1.63801 117.644 -1.93782 117.694 -1.94579C117.823 -1.96642 118.028 -1.99508 118.231 -2.02347C118.632 -2.07969 119.027 -2.13485 118.815 -2.12448C120.498 -2.21304 122.576 -2.36144 124.802 -2.52042C130.028 -2.89363 136.071 -3.32518 139.733 -3.17796C142.041 -3.08522 143.712 -2.58816 144.431 -2.3333C144.611 -2.2695 144.701 -2.2376 144.743 -2.15274C144.784 -2.06788 144.753 -1.9727 144.691 -1.78233C144.646 -1.64356 144.603 -1.51292 144.563 -1.38882C144.109 0.00588046 143.925 0.57411 142.946 2.56145C142.799 2.85895 142.609 3.29766 142.378 3.85664C142.338 3.9522 142.318 3.99997 142.282 4.03411C142.246 4.06825 142.197 4.08514 142.1 4.11892L141.126 4.45726C140.878 4.54347 140.754 4.58657 140.716 4.68994C140.678 4.79331 140.745 4.9064 140.878 5.13259L141.371 5.96683C141.404 6.02191 141.42 6.04945 141.428 6.07889C141.436 6.10814 141.439 6.1387 141.435 6.16885C141.431 6.1992 141.42 6.2289 141.396 6.2883C139.563 10.8716 136.513 18.4996 132.703 25.4101C132.634 25.5352 132.058 25.3778 131.479 25.2195C130.893 25.0595 130.304 24.8986 130.233 25.0278C130.141 25.1935 130.553 25.6424 130.968 26.0945C131.389 26.5532 131.813 27.0152 131.716 27.188C130.847 28.7473 129.915 30.4012 128.927 32.1542C127.964 33.8638 126.947 35.6677 125.884 37.5698C124.402 40.2213 123.146 42.6071 122.036 44.7355C121.894 45.0079 121.01 43.9224 119.848 42.4955C118.809 41.2202 117.549 39.6723 116.397 38.5777C115.965 38.1667 115.749 37.9612 115.591 38.0843C115.433 38.2075 115.587 38.4798 115.895 39.0244C116.914 40.829 118.096 43.1449 118.958 45.0206C118.788 44.5173 118.611 44.0268 118.467 43.6337C118.331 43.2648 118.263 43.0803 118.385 42.9752C118.508 42.8701 118.667 42.9574 118.985 43.132C119.314 43.3121 119.681 43.5696 119.973 43.9227C120.606 44.6879 121.236 45.6983 121.755 46.529C122.285 47.3778 122.697 48.0391 122.876 48.0598L120.653 47.8344C120.578 47.8267 120.54 47.8229 120.495 47.8367C120.448 47.8514 120.455 47.8473 120.417 47.8789C120.38 47.9086 120.304 48.0525 120.152 48.3405C117.254 53.8155 114.779 57.0847 112.925 59.5171C111.513 61.3704 109.966 64.4898 109.31 65.8701C109.162 66.1808 109.088 66.3362 108.961 66.351C108.833 66.3659 108.725 66.2317 108.51 65.9634C107.469 64.6639 104.969 61.6032 103.546 60.3528C102.625 59.5442 101.687 58.2083 100.248 56.1613ZM101.144 15.7549L105.064 19.2512C105.102 19.2854 105.121 19.3025 105.136 19.3231C105.151 19.3438 105.161 19.3674 105.182 19.4147L107.019 23.6973L104.626 19.7211C104.615 19.7031 104.609 19.6942 104.603 19.6857C104.597 19.6773 104.59 19.6694 104.576 19.6537L101.144 15.7549ZM93.7141 45.8009C94.58 46.8935 95.0129 47.4398 95.1884 47.3328C95.3638 47.2259 95.0764 46.5908 94.5016 45.3207L94.4652 45.2402C94.4521 45.2112 94.4455 45.1967 94.4371 45.1833C94.4286 45.1699 94.4184 45.1577 94.3979 45.1333L83.859 32.5646L81.1982 30.0084L93.7141 45.8009Z" fill="white"/>
<path fill-rule="evenodd" clip-rule="evenodd" d="M52.0598 63.4064C52.5204 63.9527 52.7506 64.2258 52.904 64.1493C53.0573 64.0727 52.9773 63.7245 52.8174 63.0282L52.2722 60.6541C52.2488 60.5524 52.2371 60.5016 52.2485 60.4526C52.2599 60.4036 52.2927 60.3631 52.3585 60.2821L67.8926 41.1452C68.0301 40.9757 68.0989 40.891 68.1931 40.8843C68.2874 40.8776 68.3667 40.9512 68.5253 41.0983C69.5462 42.0453 72.7245 44.9884 76.0302 48.0002C76.0667 48.0334 76.0849 48.0499 76.0988 48.0699C76.1127 48.0899 76.122 48.1127 76.1405 48.1582L77.1537 50.6501C77.7383 52.088 78.0306 52.807 78.1976 52.7848C78.2213 52.7816 78.2444 52.7746 78.2658 52.7639C78.4167 52.6889 78.2569 51.9295 77.9374 50.4105C77.795 49.7335 77.7238 49.395 77.8498 49.3138C77.8682 49.302 77.8882 49.2929 77.9093 49.2871C78.0537 49.2469 78.2594 49.525 78.6708 50.0811L82.4463 55.1859C82.564 55.3451 82.6229 55.4247 82.6116 55.5117C82.6004 55.5986 82.5232 55.6606 82.3688 55.7846L80.264 57.4749C80.1421 57.5727 80.0812 57.6216 80.0631 57.6915C80.0449 57.7614 80.0743 57.8338 80.1332 57.9786L80.1916 58.1222C80.3147 58.4251 80.3763 58.5765 80.4988 58.5951C80.6214 58.6136 80.725 58.4871 80.9321 58.2342L83.4372 55.1754C83.5681 55.0155 83.6335 54.9356 83.7232 54.9266C83.8129 54.9177 83.8936 54.9836 84.0549 55.1154C84.3327 55.3425 84.5634 55.5234 84.7384 55.6501C85.9642 56.5375 88.0439 58.0531 89.8544 59.3741C89.9725 59.4603 90.0316 59.5033 90.0539 59.5678C90.0762 59.6323 90.0564 59.7028 90.0168 59.8438L89.483 61.7409C89.1822 62.8099 89.0318 63.3445 89.2035 63.4212C89.3751 63.498 89.6733 63.0296 90.2698 62.0928L91.0704 60.8352C91.1872 60.6516 91.2457 60.5598 91.3384 60.5423C91.431 60.5248 91.519 60.5891 91.695 60.7175C92.6408 61.4082 93.2987 61.889 93.362 61.9353C93.3645 61.9371 93.3657 61.938 93.367 61.939C93.3684 61.9401 93.3698 61.9411 93.3725 61.9433L93.5095 62.0502C93.6437 62.1551 93.7109 62.2075 93.728 62.2833C93.7452 62.359 93.7072 62.4352 93.6312 62.5878L92.2984 65.2627C92.2267 65.4067 92.42 65.5341 92.524 65.4115L94.3611 63.2457C94.4891 63.0948 94.5531 63.0194 94.6403 63.0104C94.7275 63.0015 94.8055 63.0624 94.9614 63.1842L116.299 79.8492C116.464 79.9778 116.546 80.0421 116.557 80.133C116.567 80.2238 116.501 80.3049 116.369 80.4671L107.084 91.9065L104.068 95.5617C103.027 96.8229 102.507 97.4535 102.343 97.3429C102.179 97.2323 102.569 96.5138 103.349 95.0767L107.776 86.9204L109.504 82.7128L97.3617 103.68C97.3527 103.695 97.3482 103.703 97.343 103.711C97.3379 103.718 97.3322 103.725 97.3207 103.739L93.8459 107.95C93.7421 108.076 93.6901 108.139 93.617 108.155C93.5439 108.171 93.4702 108.136 93.3228 108.066L91.7751 107.33C91.1299 107.023 90.8073 106.87 90.6993 107.003C90.5914 107.136 90.8082 107.42 91.2418 107.988L92.2686 109.333C92.3693 109.464 92.4196 109.53 92.4182 109.606C92.4167 109.682 92.364 109.746 92.2584 109.874L88.8211 114.04L86.6081 116.837C86.481 116.998 86.4175 117.078 86.4278 117.168C86.4381 117.257 86.5182 117.321 86.6784 117.448L86.7658 117.518C86.9207 117.641 86.9981 117.703 87.0097 117.79C87.0214 117.877 86.9628 117.957 86.8457 118.116L85.4969 119.956C85.3091 120.212 85.2152 120.34 85.0938 120.33C84.9724 120.32 84.9006 120.179 84.7571 119.895L81.4326 113.333C81.4201 113.308 81.4028 113.286 81.3817 113.268C81.2128 113.122 80.9629 113.302 81.0468 113.508L83.733 120.115C83.7796 120.23 83.8029 120.288 83.7946 120.346C83.7863 120.404 83.7479 120.453 83.6711 120.55L78.338 127.291C78.2078 127.456 78.1427 127.538 78.0515 127.547C77.9602 127.557 77.8795 127.49 77.7181 127.356L73.1006 123.52C73.0249 123.457 72.9871 123.425 72.9665 123.383C72.9459 123.34 72.9451 123.291 72.9434 123.192L72.8896 120.094C72.8771 119.38 72.8709 119.023 72.7037 118.986C72.5364 118.948 72.3787 119.269 72.0632 119.91L71.3473 121.364C71.2349 121.593 71.1786 121.707 71.0753 121.729C70.972 121.751 70.874 121.67 70.6781 121.507L70.6448 121.48L53.5068 106.52L50.0729 104.023C50.0264 103.989 50.0032 103.972 49.9876 103.955C49.925 103.884 49.9148 103.782 49.9622 103.7C49.9741 103.68 49.9935 103.659 50.0324 103.617C50.3383 103.284 50.4912 103.118 50.5061 103.078C50.5697 102.911 50.416 102.743 50.2438 102.791C50.2035 102.803 50.024 102.94 49.6649 103.214L48.6461 103.993C48.5254 104.085 48.4651 104.131 48.399 104.135C48.3736 104.137 48.3481 104.134 48.3237 104.127C48.2602 104.108 48.2117 104.05 48.1147 103.933L46.2934 101.737C46.2392 101.672 46.273 101.572 46.3558 101.553C46.4511 101.532 46.4765 101.408 46.3975 101.35L39.5695 96.3854L29.2914 88.5517C29.1189 88.4202 29.0326 88.3545 29.0228 88.2609C29.0131 88.1673 29.0839 88.0852 29.2255 87.9209L35.0298 81.1857C35.0936 81.1117 35.1254 81.0747 35.1684 81.055C35.2113 81.0352 35.2601 81.0349 35.3578 81.0345L38.9755 81.0179C39.69 81.0147 40.0473 81.013 40.0868 80.8463C40.1263 80.6795 39.8078 80.5177 39.1709 80.194L37.3807 79.2844C37.1526 79.1685 37.0385 79.1105 37.018 79.0065C36.9975 78.9025 37.081 78.8056 37.2481 78.6117L41.2366 73.9835L50.5881 62.4631C50.7418 62.2738 50.8186 62.1791 50.9211 62.1782C51.0236 62.1772 51.1022 62.2705 51.2593 62.4569L52.0598 63.4064ZM46.8656 101.438L53.2692 99.9842C53.332 99.97 53.3634 99.9628 53.391 99.9473C53.3927 99.9464 53.3943 99.9454 53.396 99.9444C53.4232 99.9281 53.445 99.9045 53.4885 99.8571C53.9494 99.3557 54.1799 99.105 54.0983 98.966C54.0939 98.9586 54.0891 98.9514 54.0839 98.9446C53.9865 98.8162 53.6669 98.9338 53.0278 99.1691L46.8656 101.438ZM99.5151 83.3043C99.4916 83.3463 99.4798 83.3673 99.4729 83.3902C99.4661 83.4131 99.4643 83.4371 99.4607 83.4851L99.0564 88.9601L100.104 83.6395C100.107 83.6202 100.109 83.6106 100.112 83.6012C100.115 83.5918 100.118 83.5826 100.126 83.5644L101.897 79.0537L99.5151 83.3043Z" fill="white"/>
<path fill-rule="evenodd" clip-rule="evenodd" d="M284.999 68.2102C284.432 68.6452 284.149 68.8627 284.218 69.0194C284.288 69.1761 284.639 69.1122 285.342 68.9844L287.739 68.5486C287.841 68.53 287.893 68.5206 287.941 68.5342C287.989 68.5479 288.028 68.5826 288.106 68.652L306.51 85.048C306.673 85.1932 306.755 85.2658 306.757 85.3603C306.759 85.4547 306.682 85.5305 306.528 85.6823C305.535 86.6587 302.449 89.6985 299.289 92.8625C299.254 92.8974 299.237 92.9148 299.216 92.9278C299.195 92.9408 299.172 92.949 299.126 92.9654L296.59 93.8631C295.127 94.3811 294.395 94.6401 294.41 94.808C294.412 94.8318 294.418 94.8551 294.427 94.877C294.495 95.0312 295.261 94.9065 296.793 94.657C297.476 94.5458 297.818 94.4902 297.893 94.6198C297.904 94.6387 297.912 94.6592 297.917 94.6805C297.951 94.8266 297.663 95.0193 297.089 95.4047L291.816 98.942C291.652 99.0523 291.569 99.1074 291.483 99.0922C291.397 99.0769 291.338 98.997 291.222 98.8371L289.63 96.6569C289.538 96.5307 289.492 96.4676 289.423 96.4462C289.354 96.4249 289.28 96.451 289.133 96.5031L288.986 96.5549C288.678 96.664 288.524 96.7185 288.5 96.8401C288.476 96.9616 288.597 97.0709 288.841 97.2895L291.781 99.9323C291.935 100.07 292.012 100.139 292.017 100.229C292.021 100.319 291.952 100.397 291.813 100.552C291.573 100.819 291.382 101.041 291.247 101.21C290.305 102.394 288.695 104.402 287.292 106.15C287.201 106.264 287.155 106.321 287.09 106.34C287.024 106.36 286.955 106.337 286.816 106.291L284.945 105.67C283.891 105.321 283.364 105.146 283.279 105.314C283.195 105.482 283.649 105.801 284.557 106.44L285.777 107.298C285.955 107.423 286.044 107.485 286.057 107.579C286.07 107.672 286.002 107.757 285.866 107.927C285.132 108.84 284.622 109.475 284.573 109.536C284.571 109.539 284.57 109.54 284.569 109.541C284.568 109.543 284.567 109.544 284.564 109.547L284.451 109.678C284.34 109.808 284.285 109.872 284.208 109.886C284.132 109.9 284.058 109.858 283.909 109.775L281.298 108.321C281.157 108.243 281.021 108.43 281.139 108.54L283.218 110.474C283.363 110.609 283.435 110.676 283.44 110.764C283.445 110.852 283.381 110.927 283.252 111.077L265.625 131.627C265.489 131.786 265.421 131.865 265.33 131.871C265.239 131.877 265.161 131.808 265.005 131.669L254.003 121.868L250.49 118.687C249.278 117.59 248.672 117.041 248.79 116.882C248.908 116.724 249.608 117.146 251.008 117.991L258.952 122.788L263.076 124.707L242.689 111.616C242.674 111.606 242.666 111.601 242.659 111.596C242.652 111.59 242.645 111.584 242.632 111.572L238.584 107.908C238.463 107.798 238.403 107.743 238.39 107.67C238.377 107.596 238.416 107.524 238.492 107.38L239.299 105.868C239.635 105.237 239.803 104.922 239.675 104.808C239.547 104.694 239.254 104.898 238.666 105.305L237.276 106.269C237.139 106.363 237.071 106.41 236.995 106.405C236.92 106.401 236.858 106.345 236.735 106.234L232.732 102.609L230.039 100.27C229.884 100.135 229.807 100.068 229.717 100.074C229.627 100.081 229.56 100.158 229.425 100.312L229.352 100.396C229.221 100.545 229.156 100.62 229.069 100.627C228.981 100.635 228.904 100.573 228.75 100.448L226.974 99.0165C226.727 98.8171 226.604 98.7174 226.619 98.5966C226.635 98.4758 226.779 98.4106 227.069 98.2802L233.777 95.2605C233.803 95.2491 233.825 95.2328 233.845 95.2125C233.997 95.0505 233.829 94.7926 233.619 94.8669L226.896 97.2471C226.779 97.2884 226.721 97.3091 226.663 97.2981C226.605 97.2871 226.558 97.2465 226.465 97.1653L219.976 91.5285C219.817 91.3908 219.738 91.322 219.733 91.2304C219.727 91.1388 219.798 91.0613 219.939 90.9062L223.983 86.4696C224.05 86.3969 224.083 86.3606 224.126 86.342C224.17 86.3234 224.219 86.3248 224.318 86.3276L227.415 86.416C228.129 86.4364 228.486 86.4466 228.531 86.2812C228.576 86.1159 228.263 85.9436 227.637 85.599L226.217 84.8171C225.994 84.6943 225.882 84.6329 225.865 84.5286C225.848 84.4244 225.933 84.3303 226.105 84.1421L226.134 84.11L241.864 67.6768L244.516 64.3611C244.552 64.3162 244.57 64.2938 244.589 64.279C244.662 64.2198 244.765 64.2142 244.844 64.2653C244.864 64.2781 244.884 64.2985 244.924 64.3392C245.243 64.6601 245.402 64.8205 245.44 64.8372C245.604 64.9084 245.779 64.7626 245.739 64.5884C245.73 64.5476 245.601 64.3619 245.343 63.9906L244.612 62.9372C244.525 62.8124 244.482 62.75 244.481 62.6838C244.48 62.6583 244.485 62.633 244.493 62.609C244.515 62.5464 244.575 62.5006 244.696 62.4091L246.974 60.6905C247.041 60.6394 247.139 60.6777 247.154 60.7612C247.171 60.8574 247.294 60.8886 247.355 60.8122L252.628 54.2193L260.925 44.3116C261.065 44.1453 261.134 44.0622 261.228 44.0567C261.322 44.0512 261.401 44.1257 261.558 44.2747L268.02 50.3821C268.091 50.4492 268.127 50.4827 268.144 50.5265C268.162 50.5703 268.16 50.6191 268.156 50.7166L268.007 54.3313C267.977 55.0452 267.962 55.4022 268.127 55.4493C268.292 55.4965 268.468 55.1857 268.821 54.5643L269.812 52.8178C269.938 52.5952 270.001 52.4839 270.106 52.4682C270.211 52.4524 270.304 52.5403 270.49 52.7161L274.93 56.9129L286.009 66.7833C286.191 66.9455 286.282 67.0266 286.278 67.129C286.274 67.2315 286.178 67.3057 285.984 67.4541L284.999 68.2102ZM247.246 61.2758L248.404 67.7394C248.416 67.8028 248.421 67.8344 248.436 67.8627C248.436 67.8645 248.437 67.8662 248.438 67.8679C248.453 67.8958 248.476 67.9186 248.521 67.9643C249.001 68.4478 249.241 68.6895 249.383 68.6143C249.391 68.6103 249.398 68.6059 249.405 68.601C249.538 68.5095 249.435 68.1849 249.23 67.5357L247.246 61.2758ZM262.944 114.702C262.903 114.677 262.883 114.664 262.86 114.656C262.838 114.648 262.814 114.645 262.766 114.64L257.315 113.984L262.582 115.275C262.601 115.279 262.611 115.282 262.62 115.285C262.629 115.288 262.638 115.292 262.656 115.3L267.081 117.277L262.944 114.702Z" fill="white"/>
<path fill-rule="evenodd" clip-rule="evenodd" d="M239.856 23.7439C239.884 23.7361 239.899 23.7321 239.912 23.7265C239.926 23.7209 239.938 23.7135 239.964 23.6989L240.858 23.1847C241.208 22.9834 241.384 22.8827 241.376 22.7396C241.367 22.5965 241.182 22.5162 240.811 22.3555L231.408 18.279C231.339 18.2492 231.304 18.2342 231.268 18.2308C231.231 18.2273 231.194 18.2355 231.121 18.252L228.05 18.9425C226.993 19.1802 226.465 19.2991 226.391 19.1158C226.317 18.9325 226.781 18.6522 227.708 18.0915L228.387 17.6809C228.706 17.4882 228.865 17.3918 228.86 17.2547C228.854 17.1175 228.688 17.0342 228.354 16.8676L227.633 16.507C227.508 16.4442 227.445 16.4129 227.379 16.4189C227.313 16.425 227.257 16.4673 227.145 16.5518L224.252 18.7381C223.644 19.1976 223.34 19.4274 223.198 19.3115C223.057 19.1956 223.222 18.8523 223.553 18.1656L224.791 15.5975C224.884 15.4028 224.931 15.3054 224.9 15.2153C224.87 15.1252 224.773 15.0768 224.58 14.9802L213.311 9.34523L207.359 5.67534C207.328 5.65627 207.313 5.64674 207.296 5.63974C207.28 5.63274 207.262 5.62839 207.227 5.61969L203.319 4.65628C203.252 4.63972 203.218 4.63144 203.189 4.61412C203.159 4.59679 203.136 4.5714 203.089 4.52061L199.949 1.12578C199.928 1.10249 199.917 1.09084 199.905 1.08079C199.892 1.07074 199.879 1.06242 199.852 1.04576L192.755 -3.33049L185.659 -7.47091C185.27 -7.69759 185.076 -7.81093 184.954 -7.72253C184.831 -7.63413 184.877 -7.41404 184.97 -6.97387L186.722 1.35651L189.741 11.4245L192.09 20.3858L189.56 13.0209L186.024 1.77774L183.77 -6.57421C183.643 -7.04535 183.58 -7.28093 183.424 -7.29975C183.269 -7.31857 183.151 -7.10494 182.915 -6.67769L175.019 7.63022L166.062 23.1019C165.983 23.2377 165.944 23.3056 165.95 23.3784C165.956 23.4513 166.006 23.5115 166.107 23.6321L167.627 25.4585C168.115 26.0443 168.359 26.3372 168.25 26.484C168.141 26.6307 167.79 26.4817 167.089 26.1836L165.21 25.3856C165.03 25.3091 164.94 25.2709 164.857 25.2987C164.774 25.3266 164.725 25.4112 164.627 25.5805L163.563 27.4171C163.468 27.5812 163.421 27.6633 163.34 27.6918C163.259 27.7203 163.17 27.6861 162.993 27.6176L162.007 27.2356C161.81 27.1594 161.711 27.1213 161.625 27.1574C161.538 27.1935 161.496 27.2904 161.412 27.4842L159.928 30.9085C159.793 31.2194 159.726 31.3749 159.8 31.4814C159.875 31.5878 160.044 31.5776 160.382 31.5572L164.709 31.2966C166.561 31.1851 167.486 31.1293 167.518 31.3392C167.55 31.5491 166.649 31.77 164.848 32.2118L160.308 33.3252C160.213 33.3485 160.165 33.3601 160.127 33.3885C160.089 33.417 160.065 33.4592 160.016 33.5437L159.756 33.9929L153.055 45.7834C152.88 46.0914 152.793 46.2454 152.86 46.3608C152.926 46.4762 153.104 46.4767 153.458 46.4777L154.447 46.4804C154.484 46.4805 154.503 46.4805 154.521 46.4776C154.54 46.4747 154.557 46.4688 154.593 46.4571L163.461 43.5405L172.348 41.3184L180.343 39.538L171.055 42.4441L163.514 44.4979L153.718 48.1711C153.307 48.3251 153.101 48.4021 153.091 48.5511C153.081 48.7001 153.273 48.8048 153.659 49.0144L175.776 61.04C175.876 61.0941 175.925 61.1211 175.98 61.1231C176.034 61.1252 176.086 61.102 176.189 61.0556L178.706 59.9234C179.401 59.6108 179.749 59.4544 179.861 59.5989C179.973 59.7433 179.735 60.0413 179.26 60.6371L178.327 61.8058C178.167 62.0068 178.087 62.1072 178.108 62.2135C178.13 62.3198 178.243 62.3811 178.469 62.5039L179.34 62.9776C179.343 62.9794 179.345 62.9803 179.346 62.9811C179.348 62.982 179.349 62.9825 179.351 62.9834C179.489 63.053 182.832 64.7346 185.858 66.2514L191.589 68.5998C191.653 68.626 191.685 68.6391 191.711 68.6606C191.738 68.682 191.757 68.7106 191.796 68.7677L193.072 70.6359C193.093 70.6663 193.103 70.6814 193.116 70.6947C193.128 70.708 193.142 70.719 193.171 70.7411C197.441 74.0394 203.799 79.2044 204.291 79.6043C204.306 79.6161 204.313 79.622 204.321 79.6297C204.328 79.6373 204.335 79.6456 204.35 79.6623L205.845 81.4359C206.245 81.9095 206.444 82.1463 206.602 82.079C206.76 82.0116 206.728 81.7035 206.663 81.0874L206.085 75.6284L204.907 68.9614L201.691 57.4812L203.544 61.9996L207.941 76.0764L208.69 78.622L209.073 79.7585C209.216 80.1815 209.287 80.393 209.437 80.4074C209.587 80.4219 209.697 80.2278 209.918 79.8397L222.466 57.7611C222.546 57.6199 222.586 57.5493 222.578 57.4744C222.569 57.3995 222.515 57.3394 222.406 57.2191L221.081 55.7596C220.353 54.9572 219.988 54.5561 220.111 54.4015C220.235 54.2469 220.707 54.5119 221.652 55.0419L223.038 55.819C223.228 55.9256 223.323 55.9789 223.415 55.9532C223.508 55.9275 223.561 55.8327 223.669 55.6433L231.834 41.276L241.053 25.6174C241.289 25.2165 241.407 25.0161 241.316 24.8926C241.225 24.7691 240.998 24.8225 240.545 24.9294L211.983 31.6719L213.944 30.9185L239.856 23.7439ZM170.882 30.6711C170.91 30.6818 170.924 30.6871 170.938 30.6906C170.965 30.6974 170.993 30.6992 171.021 30.696C171.035 30.6943 171.05 30.6908 171.078 30.6838C171.374 30.6112 171.522 30.5749 171.568 30.529C171.659 30.4379 171.659 30.2899 171.567 30.1993C171.521 30.1537 171.373 30.1184 171.076 30.0476L166.372 28.9253L170.882 30.6711ZM200.191 9.72331C200.236 9.74543 200.259 9.75648 200.283 9.76241C200.308 9.76834 200.333 9.76895 200.383 9.77018L211.47 10.0404L201.429 8.68778L198.913 8.078C197.389 7.70885 196.627 7.52427 196.557 7.72046C196.486 7.91664 197.19 8.26021 198.6 8.94733L200.191 9.72331Z" fill="white"/>
<path fill-rule="evenodd" clip-rule="evenodd" d="M-10.1339 -8.33722C-10.1046 -8.45494 -9.98973 -8.53034 -9.87009 -8.51032L5.26153 -5.97893C5.27511 -5.97666 5.28846 -5.97318 5.30142 -5.96855L10.5849 -4.07945C10.6172 -4.0679 10.6517 -4.06365 10.6858 -4.06699L15.0868 -4.49811C15.1054 -4.49994 15.1242 -4.4995 15.1428 -4.49681L27.5006 -2.70477L43.8278 -1.6603C43.9268 -1.65397 44.0108 -1.58557 44.037 -1.48999L47.5701 11.3655C47.5876 11.4444 47.5611 11.5267 47.5008 11.5805L44.1468 14.5743C43.936 14.7624 44.1803 15.0928 44.4219 14.9463L47.6206 13.0079C47.7566 12.9255 47.9333 13.001 47.9678 13.1562L50.7863 25.8474L50.4059 24.7651L52.1882 32.5738C52.1916 32.5886 52.1935 32.6037 52.194 32.6188L52.3165 36.8911C52.3247 37.178 52.7438 37.198 52.7793 36.9132L53.1284 34.114C53.1583 33.874 53.4892 33.8337 53.5759 34.0595L56.8218 42.5188C56.8645 42.63 56.8161 42.7555 56.7098 42.8093L47.3436 47.5489L42.999 50.272C42.9854 50.2805 42.9711 50.2876 42.9561 50.2931L40.2905 51.2773C40.2632 51.2874 40.238 51.3025 40.2163 51.3219L37.6191 53.6401C37.6093 53.6488 37.5989 53.6567 37.5878 53.6636L29.6012 58.6695L14.033 70.3693C13.9505 70.4314 13.8369 70.4315 13.7543 70.3696L4.91343 63.755L-6.28517 57.5612C-6.36914 57.5148 -6.41592 57.4215 -6.40292 57.3264L-5.93226 53.8848C-5.89674 53.625 -6.25152 53.5145 -6.36983 53.7484L-7.71745 56.4137C-7.78125 56.5399 -7.94201 56.5803 -8.0579 56.4994L-10.0274 55.1229C-10.1095 55.0656 -10.1307 54.9532 -10.0752 54.8698C-9.94924 54.6806 -10.2106 54.4756 -10.3643 54.6431L-11.3231 55.6875C-11.4074 55.7794 -11.5493 55.7883 -11.6444 55.7076L-14.1227 53.608C-14.2549 53.496 -14.2224 53.2838 -14.0627 53.2166L-7.0551 50.2648C-7.01307 50.2471 -6.97718 50.2174 -6.95191 50.1794L-6.34632 49.27C-6.2112 49.0671 -6.43994 48.8196 -6.65287 48.9383L-13.3252 52.6586C-13.403 52.7019 -13.4986 52.6971 -13.5715 52.6461L-24.1659 45.2422C-24.2438 45.1877 -24.2807 45.0914 -24.2591 44.9989L-19.4399 24.3598L-15.8866 14.7993L-12.7722 2.27374C-12.7278 2.09492 -12.5028 2.03653 -12.377 2.17114L-8.86303 5.93073C-8.68077 6.12573 -8.3673 5.90981 -8.48454 5.67002L-11.8494 -1.21227C-11.8734 -1.26136 -11.8793 -1.31735 -11.8662 -1.37039L-10.1339 -8.33722ZM-15.029 25.8471C-15.1747 26.0919 -15.5483 25.9101 -15.4454 25.6444L-14.6329 23.5455C-14.6268 23.5295 -14.6188 23.5143 -14.6093 23.5L-13.3187 21.5729C-13.1606 21.3369 -12.7982 21.5366 -12.9132 21.7963L-13.7695 23.7302L-15.029 25.8471ZM32.3232 50.4012C32.3381 50.3862 32.355 50.3733 32.3734 50.3629L34.7423 49.0185C34.9806 48.8832 35.2156 49.1997 35.0173 49.3887L15.8973 67.6125L18.6218 64.2025L32.3232 50.4012Z" fill="white"/>
<path fill-rule="evenodd" clip-rule="evenodd" d="M42.6198 114.441C42.749 114.353 42.7566 114.165 42.6349 114.067L29.7227 103.685C29.6613 103.636 29.5791 103.621 29.5044 103.645L18.17 107.383L6.5379 112.309L5.16361 112.722C4.89865 112.801 4.9698 113.195 5.24586 113.176L12.0441 112.725L16.4051 112.906L-0.831314 114.528C-0.846604 114.53 -0.861715 114.533 -0.876423 114.537L-9.96131 117.268C-10.0446 117.293 -10.107 117.362 -10.1229 117.448L-11.7687 126.307C-11.7776 126.355 -11.7712 126.404 -11.7506 126.448L-10.2879 129.565C-10.1745 129.807 -10.4914 130.018 -10.6705 129.82L-11.8082 128.563C-11.9372 128.42 -12.1738 128.487 -12.2089 128.676L-12.3164 129.255C-12.3296 129.326 -12.309 129.4 -12.2606 129.453L-9.98244 131.982C-9.97425 131.991 -9.96678 132.001 -9.96012 132.011L-7.18117 136.295L-6.59512 137.196C-6.43987 137.435 -6.7673 137.69 -6.9605 137.48L-7.81211 136.559L-10.6162 132.815L-12.1556 131.172C-12.2923 131.026 -12.5373 131.11 -12.5564 131.309L-12.5749 131.501C-12.5763 131.516 -12.5763 131.53 -12.575 131.545L-11.9354 138.453C-11.9327 138.482 -11.9355 138.511 -11.9436 138.539L-13.8923 145.248C-13.8963 145.262 -13.8991 145.276 -13.9005 145.291L-13.9958 146.282L-16.6954 159.96C-16.7128 160.048 -16.6777 160.138 -16.6051 160.192L-4.74586 168.917L-1.90893 171.452C-1.80899 171.541 -1.8051 171.696 -1.90044 171.79L-2.25505 172.141C-2.34378 172.228 -2.34748 172.37 -2.26342 172.462L0.657279 175.664C0.774065 175.792 0.984849 175.752 1.04623 175.59L3.62574 168.78C3.726 168.515 4.12271 168.625 4.07155 168.904L2.84967 175.553C2.83502 175.633 2.86296 175.715 2.9234 175.769L6.19733 178.693L17.2836 186.343C17.3491 186.389 17.4332 186.397 17.5065 186.366L30.9304 180.655L43.8157 174.166C43.8774 174.135 43.8523 174.042 43.7833 174.046C43.7792 174.046 43.775 174.047 43.771 174.048L34.9494 176.342L44.0677 172.826C44.1012 172.813 44.1373 172.808 44.1731 172.811L46.7273 173.052C46.7589 173.055 46.7907 173.051 46.8209 173.042L54.3668 170.592C54.4522 170.564 54.514 170.49 54.5255 170.401L56.3412 156.392C56.3574 156.267 56.2715 156.153 56.1474 156.133L51.8665 155.451L56.4027 155.715C56.5223 155.722 56.6276 155.637 56.6459 155.519L56.9298 153.686C56.9534 153.533 56.824 153.4 56.6707 153.42L51.5328 154.076C51.5083 154.079 51.4856 154.09 51.4678 154.107C51.3657 154.205 51.2112 154.067 51.2977 153.955L51.4835 153.713C51.5063 153.684 51.5401 153.665 51.5772 153.661L56.184 153.154C56.2748 153.144 56.3514 153.081 56.3796 152.994L58.5268 146.364C58.6037 146.126 58.3033 145.951 58.1346 146.135L53.0757 151.647L57.8357 145.468C57.8581 145.439 57.8733 145.405 57.88 145.369L60.8402 129.615C60.8566 129.528 60.822 129.439 60.7511 129.386L58.6416 127.807C58.4693 127.678 58.2294 127.833 58.2754 128.043L58.5965 129.509C58.6579 129.789 58.2561 129.91 58.1527 129.642L57.1276 126.986C57.1222 126.972 57.1153 126.959 57.1072 126.946L56.7851 126.437C56.7699 126.413 56.7506 126.392 56.7279 126.375L55.2547 125.272L47.6544 118.309C47.6148 118.273 47.5639 118.251 47.5103 118.248L43.116 118.005C42.8487 117.99 42.8143 117.609 43.0745 117.547L45.7485 116.904C45.874 116.873 45.9148 116.715 45.8196 116.628L44.1729 115.304C44.1124 115.255 44.0315 115.24 43.9574 115.264L40.713 116.286C40.4577 116.367 40.2912 116.023 40.5125 115.872L42.6198 114.441ZM4.69594 165.274C4.7298 165.241 4.75257 165.198 4.76118 165.151L4.83748 164.736C4.88154 164.496 4.57367 164.359 4.42489 164.552L1.23371 168.694L4.69594 165.274Z" fill="white"/>
<path fill-rule="evenodd" clip-rule="evenodd" d="M295.468 -33.3265C295.597 -33.4142 295.605 -33.6019 295.483 -33.6997L282.571 -44.0822C282.509 -44.1316 282.427 -44.1465 282.352 -44.1218L271.018 -40.3839L259.386 -35.4583L258.012 -35.0452C257.747 -34.9656 257.818 -34.5726 258.094 -34.5909L264.892 -35.0416L269.253 -34.8608L252.017 -33.2387C252.002 -33.2372 251.986 -33.2343 251.972 -33.2299L242.887 -30.4994C242.804 -30.4743 242.741 -30.4048 242.725 -30.3193L241.079 -21.4602C241.071 -21.4125 241.077 -21.3631 241.098 -21.3191L242.56 -18.2018C242.674 -17.9602 242.357 -17.7493 242.178 -17.9472L241.04 -19.2042C240.911 -19.3468 240.674 -19.2798 240.639 -19.0907L240.532 -18.5118C240.519 -18.4407 240.539 -18.3675 240.588 -18.3138L242.866 -15.7854C242.874 -15.7763 242.881 -15.7666 242.888 -15.7563L245.667 -11.4716L246.253 -10.5711C246.408 -10.3325 246.081 -10.0776 245.888 -10.2866L245.036 -11.208L242.232 -14.9524L240.693 -16.595C240.556 -16.741 240.311 -16.6575 240.292 -16.4584L240.273 -16.2661C240.272 -16.2515 240.272 -16.2369 240.273 -16.2224L240.913 -9.31458C240.915 -9.28557 240.913 -9.25632 240.905 -9.22835L238.956 -2.51905C238.952 -2.50514 238.949 -2.49089 238.948 -2.47648L238.852 -1.48508L236.153 12.1925C236.135 12.2808 236.17 12.3713 236.243 12.4246L248.102 21.1502L250.939 23.6846C251.039 23.7739 251.043 23.929 250.948 24.0231L250.593 24.3734C250.504 24.4611 250.501 24.6032 250.585 24.6953L253.505 27.8973C253.622 28.0253 253.833 27.9851 253.894 27.823L256.474 21.0125C256.574 20.7478 256.971 20.8584 256.92 21.1368L255.698 27.7863C255.683 27.866 255.711 27.9476 255.772 28.0015L259.045 30.9263L270.132 38.5763C270.197 38.6215 270.281 38.63 270.355 38.5988L283.779 32.8881L296.664 26.3993C296.726 26.3682 296.7 26.2748 296.631 26.2789C296.627 26.2791 296.623 26.2797 296.619 26.2808L287.798 28.5754L296.916 25.0585C296.949 25.0455 296.985 25.0406 297.021 25.0439L299.575 25.2848C299.607 25.2878 299.639 25.2843 299.669 25.2745L307.215 22.8249C307.3 22.7972 307.362 22.7228 307.374 22.6338L309.189 8.625C309.206 8.50035 309.12 8.38545 308.996 8.36568L304.715 7.68372L309.251 7.94835C309.37 7.95533 309.476 7.8703 309.494 7.75195L309.778 5.9187C309.802 5.76592 309.672 5.63308 309.519 5.65267L304.381 6.30893C304.356 6.31205 304.334 6.32294 304.316 6.34C304.214 6.43832 304.059 6.29989 304.146 6.18755L304.332 5.94635C304.354 5.9168 304.388 5.8978 304.425 5.89372L309.032 5.38665C309.123 5.37665 309.2 5.31427 309.228 5.22728L311.375 -1.40349C311.452 -1.64088 311.151 -1.81602 310.983 -1.63218L305.924 3.87955L310.684 -2.29929C310.706 -2.3283 310.721 -2.36219 310.728 -2.39818L313.688 -18.1519C313.705 -18.239 313.67 -18.3278 313.599 -18.3808L311.49 -19.9599C311.317 -20.0889 311.078 -19.9344 311.124 -19.7241L311.445 -18.2584C311.506 -17.978 311.104 -17.8573 311.001 -18.125L309.976 -20.7808C309.97 -20.795 309.963 -20.8085 309.955 -20.8214L309.633 -21.3305C309.618 -21.3544 309.599 -21.3754 309.576 -21.3923L308.103 -22.4951L300.503 -29.458C300.463 -29.4943 300.412 -29.5157 300.358 -29.5187L295.964 -29.7624C295.697 -29.7772 295.662 -30.1577 295.923 -30.2203L298.597 -30.8635C298.722 -30.8936 298.763 -31.0517 298.668 -31.1389L297.021 -32.463C296.96 -32.5117 296.88 -32.5269 296.806 -32.5035L293.561 -31.4809C293.306 -31.4005 293.139 -31.7443 293.361 -31.8947L295.468 -33.3265ZM257.544 17.5071C257.578 17.4737 257.601 17.4306 257.609 17.3838L257.686 16.9686C257.73 16.7288 257.422 16.5917 257.273 16.7848L254.082 20.9272L257.544 17.5071Z" fill="white"/>
<path fill-rule="evenodd" clip-rule="evenodd" d="M77.2464 138.27C77.2152 138.18 77.2413 138.08 77.3128 138.018C83.1294 132.929 90.5107 129.583 98.6407 128.798C98.8598 128.776 98.9797 129.042 98.8205 129.194L97.5723 130.386C97.5721 130.386 97.5718 130.386 97.5715 130.386L97.5629 130.389C97.5615 130.389 97.5619 130.391 97.5634 130.391C97.5646 130.391 97.5653 130.393 97.5644 130.393L97.3603 130.588L91.8393 137.402L98.3401 130.607C98.3524 130.595 98.3661 130.583 98.3809 130.573L98.8024 130.297C98.8341 130.277 98.8703 130.264 98.9079 130.26L109.24 129.253C109.262 129.251 109.284 129.252 109.305 129.255C114.562 130.228 119.439 132.281 123.697 135.177C123.72 135.192 123.739 135.211 123.755 135.233L124.17 135.805C124.258 135.928 124.209 136.101 124.069 136.159L119.043 138.223C118.793 138.325 118.886 138.699 119.155 138.672L125.639 138.033C125.722 138.025 125.803 138.061 125.851 138.129L127.373 140.231C127.393 140.258 127.419 140.282 127.45 140.298L131.904 142.75C131.93 142.765 131.954 142.784 131.973 142.808C137.227 149.33 140.372 157.622 140.372 166.648C140.372 174.963 137.704 182.654 133.177 188.912C133.146 188.955 133.102 188.985 133.052 189L129.78 189.944C129.507 190.023 129.585 190.43 129.868 190.402L131.679 190.225C131.884 190.205 132.012 190.441 131.883 190.601C131.788 190.718 131.692 190.834 131.595 190.95C131.558 190.995 131.504 191.025 131.446 191.032L126.792 191.63C126.51 191.667 126.525 192.08 126.809 192.096L129.927 192.271C130.124 192.282 130.22 192.516 130.085 192.66C123.147 200.057 113.285 204.677 102.343 204.677C87.9499 204.677 75.4242 196.681 68.9661 184.888C68.8552 184.686 69.0755 184.468 69.2784 184.578L73.6066 186.935C73.618 186.941 73.63 186.946 73.6424 186.95L82.0595 189.842C82.0707 189.846 82.0822 189.849 82.0938 189.851L93.7525 191.962L101.609 193.681L97.8659 192.491L82.0282 189.028L72.1079 185.475C72.0975 185.472 72.0874 185.467 72.0776 185.462L68.2683 183.451C68.2247 183.428 68.1894 183.392 68.1677 183.348C67.9818 182.968 67.802 182.585 67.6286 182.198C67.5397 182 67.7469 181.803 67.9417 181.898L70.6047 183.204C70.6153 183.209 70.6263 183.214 70.6376 183.217L81.9419 186.766L89.523 189.451L85.9572 187.804L70.6751 182.392L66.9896 180.525C66.9383 180.499 66.8984 180.455 66.8776 180.402C65.2224 176.136 64.3145 171.498 64.3145 166.648C64.3145 157.74 67.3779 149.546 72.5087 143.064C72.5883 142.964 72.734 142.947 72.8349 143.026L73.2266 143.333L77.2788 147.297C77.3395 147.345 77.4277 147.293 77.4157 147.217L76.6501 142.329L76.3741 140.077C76.3419 139.815 76.7023 139.709 76.8171 139.947L77.1224 140.581L79.0115 144.242L79.6346 145.678C79.6789 145.78 79.8326 145.726 79.8036 145.619L77.2464 138.27ZM80.8205 149.382C80.7999 149.306 80.7424 149.246 80.6674 149.221L80.2661 149.09C80.0181 149.009 79.8436 149.333 80.0479 149.495L80.5137 149.865C80.6905 150.006 80.9439 149.839 80.885 149.621L80.8205 149.382ZM107.064 201.856L97.5356 202.415C97.5052 202.417 97.4748 202.413 97.4461 202.403L89.7074 199.754L97.862 201.602C97.8769 201.605 97.8921 201.607 97.9074 201.608L107.064 201.856Z" fill="white"/>
<path d="M102.343 128.62C102.573 128.62 102.614 128.931 102.393 128.994L101.021 129.39C100.763 129.465 100.603 129.117 100.828 128.97L101.287 128.669C101.323 128.645 101.366 128.632 101.409 128.631C101.72 128.623 102.031 128.62 102.343 128.62Z" fill="white"/>
<path d="M131.791 141.169C131.968 141.364 131.737 141.657 131.506 141.531L128.213 139.743C128.165 139.717 128.128 139.675 128.108 139.625L126.749 136.271C126.651 136.028 126.964 135.832 127.14 136.026L131.791 141.169Z" fill="white"/>
<path d="M75.367 140.026C75.3657 140.046 75.367 140.066 75.371 140.086L76.4076 145.314C76.4524 145.54 76.1781 145.688 76.014 145.526L75.0086 144.536L71.5336 140.363C71.4632 140.278 71.4613 140.156 71.5291 140.069L72.862 138.364C72.8737 138.349 72.8871 138.335 72.9021 138.323L75.203 136.521C75.3621 136.397 75.5937 136.519 75.5806 136.721L75.367 140.026Z" fill="white"/>
<path fill-rule="evenodd" clip-rule="evenodd" d="M130.035 47.6251C129.988 47.5292 129.964 47.4813 129.946 47.4594C129.839 47.3327 129.637 47.3559 129.562 47.5036C129.549 47.5292 129.537 47.5812 129.513 47.6852L128.169 53.5166L124.921 83.9075L122.277 103.114C122.27 103.16 122.267 103.183 122.268 103.206C122.27 103.228 122.276 103.251 122.287 103.295L125.93 117.23C125.981 117.424 126.006 117.521 126.081 117.57C126.156 117.619 126.255 117.603 126.453 117.572L127.181 117.456C128.173 117.299 128.669 117.22 128.732 117.404C128.796 117.588 128.357 117.832 127.48 118.321L126.69 118.761C126.539 118.845 126.464 118.887 126.432 118.96C126.401 119.033 126.423 119.117 126.467 119.284L126.821 120.639C126.907 120.969 126.95 121.133 127.075 121.171C127.2 121.208 127.327 121.095 127.58 120.868L130.77 118.017C130.793 117.996 130.804 117.986 130.814 117.975C130.824 117.963 130.833 117.95 130.849 117.925L133.348 114.099L135.847 111.033C135.848 111.033 135.848 111.032 135.848 111.032C135.85 111.029 135.854 111.027 135.857 111.029L142.465 113.393C142.482 113.399 142.491 113.402 142.499 113.406C142.508 113.41 142.516 113.414 142.532 113.423L146.993 115.87C147.663 116.236 147.997 116.419 148.03 116.48C148.101 116.613 148.028 116.777 147.883 116.814C147.815 116.832 147.455 116.708 146.733 116.46L146.563 116.401L142.319 114.433L135.7 112.21C135.518 112.149 135.427 112.118 135.347 112.151C135.267 112.184 135.224 112.27 135.137 112.441L134.232 114.235L131.525 118.753L128.406 122.755C128.292 122.901 128.235 122.975 128.238 123.059C128.241 123.143 128.303 123.212 128.427 123.351L143.809 140.51L156.585 153.324C156.677 153.415 156.722 153.461 156.738 153.52C156.755 153.58 156.739 153.643 156.706 153.769C156.428 154.861 156.257 155.675 156.341 155.748C156.531 155.91 158.6 157.434 159.86 158.36C160.267 158.658 160.47 158.808 160.604 158.722C160.738 158.637 160.689 158.389 160.589 157.894L158.982 149.866L161.775 158.458C161.792 158.511 161.801 158.537 161.815 158.56C161.829 158.584 161.849 158.603 161.888 158.642L170.716 167.497C171.271 168.053 171.548 168.331 171.705 168.234C171.861 168.137 171.736 167.765 171.486 167.021L170.534 164.19L166.747 154.748L158.213 129.824L155.877 121.249L159.628 131.082L167.931 154.544L174.559 169.011C174.804 169.547 174.927 169.815 175.094 169.795C175.262 169.776 175.32 169.487 175.437 168.91L175.93 166.465C175.934 166.446 175.936 166.437 175.937 166.427C175.938 166.418 175.938 166.409 175.939 166.391C175.963 165.688 176.323 155.098 176.434 153.276C176.643 149.824 176.577 139.853 176.576 139.73C176.576 139.73 176.576 139.731 176.576 139.729C176.576 139.728 176.576 139.726 176.576 139.723L176.737 130.711C176.738 130.643 176.739 130.609 176.73 130.576C176.721 130.544 176.702 130.515 176.666 130.457L174.035 126.245C173.405 125.236 173.09 124.732 173.243 124.602C173.396 124.472 173.843 124.864 174.736 125.649L176.041 126.796C176.367 127.082 176.53 127.225 176.665 127.165C176.801 127.106 176.805 126.889 176.813 126.456L176.842 124.792C176.845 124.671 176.846 124.61 176.819 124.558C176.793 124.506 176.743 124.471 176.643 124.402L175.595 123.676C174.978 123.248 174.669 123.034 174.734 122.864C174.799 122.694 175.172 122.74 175.918 122.833L176.362 122.888C176.602 122.918 176.722 122.933 176.8 122.865C176.878 122.798 176.88 122.677 176.884 122.436L177.191 105.25C177.195 105.058 177.196 104.962 177.141 104.895C177.085 104.829 176.99 104.813 176.801 104.783L174.073 104.342L167.812 102.505C167.059 102.188 166.682 102.03 166.643 101.966C166.57 101.845 166.621 101.687 166.751 101.631C166.82 101.602 167.218 101.694 168.014 101.878L174.134 103.292L176.135 103.7C176.552 103.786 176.761 103.828 176.849 103.71C176.937 103.592 176.838 103.404 176.638 103.028L168.691 88.0099C168.677 87.9842 168.671 87.9714 168.662 87.9595C168.654 87.9477 168.644 87.9369 168.625 87.9154L153.616 71.3299C153.431 71.1262 153.339 71.0243 153.278 71.0056C153.159 70.9696 153.033 71.0327 152.991 71.1491C152.97 71.2096 152.996 71.3444 153.049 71.614C153.141 72.0826 153.187 72.3168 153.16 72.3821C153.107 72.5082 152.957 72.5616 152.837 72.4974C152.774 72.4642 152.662 72.2536 152.436 71.8325L150.104 67.47C150.091 67.4448 150.084 67.4322 150.076 67.4206C150.067 67.409 150.058 67.3984 150.039 67.3773L141.442 57.8779L131.604 48.1064C131.57 48.0731 131.554 48.0565 131.542 48.0478C131.402 47.9392 131.197 48.0211 131.17 48.1964C131.168 48.2105 131.167 48.2341 131.166 48.2812C131.166 48.2887 131.166 48.2925 131.166 48.2961C131.166 48.3379 131.177 48.3789 131.199 48.4147C131.201 48.4179 131.203 48.421 131.207 48.4273L141.962 65.1891L146.951 74.4292L142.001 67.1044L131.938 51.0358C131.606 50.5051 131.44 50.2397 131.273 50.2849C131.107 50.3301 131.098 50.6431 131.08 51.2691L131.035 52.8233C131.035 52.8429 131.034 52.8527 131.035 52.8624C131.035 52.8722 131.037 52.8818 131.04 52.9012L132.441 62.9019L134.721 88.997L134.919 97.8077L133.643 87.4066L131.232 62.7673L130.062 47.7262C130.062 47.7173 130.061 47.7129 130.061 47.7085C130.058 47.6852 130.052 47.6625 130.043 47.641C130.041 47.637 130.039 47.633 130.035 47.6251ZM158.323 148.025C158.331 147.998 158.335 147.985 158.338 147.971C158.342 147.943 158.342 147.915 158.337 147.887C158.334 147.873 158.33 147.86 158.321 147.833C158.223 147.533 158.175 147.384 158.127 147.342C158.027 147.253 157.872 147.268 157.79 147.373C157.751 147.423 157.731 147.58 157.691 147.892L157.149 152.108C157.581 150.542 158.07 148.879 158.323 148.025ZM164.384 101.584C164.469 101.388 164.512 101.29 164.599 101.254C164.687 101.218 164.786 101.258 164.984 101.338L165.214 101.43C165.427 101.516 165.534 101.559 165.571 101.651C165.607 101.744 165.559 101.849 165.462 102.057L162.565 108.295C162.553 108.319 162.548 108.331 162.541 108.342C162.534 108.354 162.526 108.364 162.509 108.385L159.618 112.085L159.506 112.264C159.113 112.892 158.916 113.206 158.855 113.235C158.717 113.301 158.553 113.217 158.527 113.066C158.515 112.999 158.656 112.657 158.938 111.971C158.941 111.963 158.942 111.96 158.944 111.956C158.948 111.948 158.952 111.939 158.957 111.932C158.959 111.928 158.961 111.925 158.966 111.918L161.733 107.691C161.744 107.674 161.75 107.666 161.755 107.657C161.759 107.649 161.763 107.639 161.771 107.621L164.384 101.584ZM158.113 90.5653C158.104 90.5501 158.1 90.5424 158.095 90.5352C158.09 90.5279 158.085 90.521 158.074 90.5073L153.551 84.812L157.359 90.9023L161.449 96.3915L158.113 90.5653Z" fill="white"/>
<path d="M129.959 46.4828C129.961 46.486 129.966 46.4844 129.966 46.4806C129.966 46.4797 129.965 46.4789 129.965 46.4783C129.962 46.4753 129.957 46.4792 129.959 46.4828Z" fill="white"/>
<path d="M66.879 77.0927C66.9875 76.9662 67.0824 76.9035 67.1637 76.9046C67.2439 76.8911 67.3513 76.9419 67.4857 77.0572C67.5648 77.125 67.6145 77.1951 67.6348 77.2674C67.654 77.325 67.6393 77.4222 67.5907 77.5589C67.3127 78.3633 67.1854 79.3039 67.209 80.3806C67.2326 81.4574 67.4172 82.5624 67.7627 83.6957C68.1151 84.821 68.6256 85.8419 69.2944 86.7583C69.629 85.5359 70.1929 84.462 70.9862 83.5368C71.7524 82.6432 72.6264 81.9999 73.6083 81.6068C74.5823 81.207 75.5974 81.1032 76.6538 81.2954C77.7102 81.4876 78.7247 82.0007 79.6974 82.8347C80.6227 83.6279 81.2462 84.5811 81.568 85.694C81.8967 86.799 81.931 87.9193 81.671 89.0547C81.4098 90.1755 80.9063 91.1708 80.1605 92.0407C79.1638 93.2032 78.0921 93.9651 76.9452 94.3265C75.7972 94.6732 74.6561 94.6759 73.5218 94.3345C72.3863 93.9785 71.2967 93.3529 70.2528 92.458C68.8848 91.285 67.7483 89.8098 66.8436 88.0324C65.9377 86.2404 65.4352 84.41 65.336 82.5412C65.2357 80.6577 65.6404 79.0014 66.5501 77.5723C66.6202 77.4265 66.7298 77.2667 66.879 77.0927ZM71.2402 84.8248C70.6368 85.5287 70.2305 86.4426 70.0213 87.5668C70.4551 88.1171 70.8296 88.5685 71.1448 88.9211C71.4667 89.2657 71.8135 89.5974 72.1852 89.9161C73.237 90.8178 74.2351 91.4541 75.1796 91.8248C76.1162 92.1887 76.9562 92.3052 77.6997 92.1743C78.4352 92.0365 79.0471 91.683 79.5353 91.1136C79.9217 90.6628 80.1235 90.1155 80.1405 89.4714C80.1497 88.8207 79.9447 88.1235 79.5256 87.38C79.0986 86.6297 78.4502 85.8817 77.5803 85.1359C76.323 84.0578 75.1469 83.5091 74.0521 83.4898C72.964 83.4625 72.0267 83.9075 71.2402 84.8248Z" fill="black"/>
<path d="M270.647 82.3856C270.768 82.4998 270.826 82.5975 270.822 82.6787C270.831 82.7595 270.776 82.8643 270.654 82.9933C270.583 83.0692 270.511 83.1157 270.438 83.1326C270.379 83.1492 270.283 83.13 270.148 83.0752C269.358 82.7605 268.424 82.5902 267.347 82.5644C266.27 82.5385 265.158 82.6722 264.01 82.9654C262.87 83.2657 261.827 83.7289 260.88 84.3548C262.086 84.7452 263.133 85.3578 264.021 86.1927C264.878 86.9991 265.481 87.9017 265.828 88.9006C266.183 89.8919 266.24 90.9108 266 91.9573C265.759 93.0037 265.2 93.9936 264.322 94.927C263.488 95.8148 262.507 96.394 261.38 96.6644C260.261 96.942 259.141 96.9248 258.018 96.613C256.911 96.3006 255.94 95.752 255.105 94.967C253.989 93.9181 253.277 92.8124 252.969 91.6502C252.675 90.4876 252.725 89.3475 253.118 88.23C253.526 87.1121 254.201 86.0523 255.143 85.0507C256.377 83.7379 257.903 82.6703 259.72 81.8481C261.552 81.0254 263.403 80.6075 265.275 80.5942C267.161 80.5804 268.797 81.0607 270.183 82.0351C270.325 82.1118 270.48 82.2286 270.647 82.3856ZM262.723 86.3874C262.047 85.7523 261.153 85.3045 260.039 85.0439C259.47 85.452 259.002 85.8053 258.635 86.104C258.276 86.4098 257.929 86.741 257.593 87.0977C256.644 88.1069 255.963 89.0748 255.549 90.0013C255.143 90.9202 254.988 91.754 255.084 92.5027C255.188 93.2438 255.513 93.8712 256.06 94.385C256.492 94.7918 257.03 95.0184 257.672 95.065C258.322 95.104 259.028 94.9312 259.79 94.5467C260.559 94.1547 261.336 93.5412 262.121 92.7065C263.255 91.5 263.858 90.3503 263.927 89.2575C264.004 88.1719 263.603 87.2152 262.723 86.3874Z" fill="black"/>
<path d="M144.88 118.858C145.044 119.286 145.307 119.508 145.671 119.525C146.044 119.538 146.525 119.455 147.114 119.274C147.524 119.15 147.837 119.081 148.054 119.064C148.271 119.048 148.415 119.133 148.486 119.317C148.493 119.337 148.504 119.439 148.519 119.623L139.939 122.908C139.855 122.806 139.804 122.731 139.785 122.682C139.722 122.517 139.772 122.369 139.934 122.24C140.093 122.101 140.357 121.933 140.728 121.735C141.075 121.536 141.355 121.362 141.566 121.214C141.777 121.066 141.935 120.883 142.041 120.664C142.157 120.441 142.162 120.194 142.058 119.921L138.471 110.553C138.367 110.281 138.197 110.1 137.963 110.012C137.738 109.919 137.497 109.889 137.242 109.92C136.986 109.951 136.662 110.008 136.27 110.091C135.862 110.191 135.555 110.248 135.347 110.26C135.137 110.263 134.999 110.181 134.936 110.016C134.917 109.967 134.905 109.877 134.899 109.746L143.48 106.461C143.592 106.607 143.651 106.69 143.659 106.71C143.73 106.895 143.679 107.054 143.507 107.186C143.334 107.319 143.054 107.477 142.667 107.659C142.108 107.917 141.694 108.176 141.425 108.435C141.166 108.691 141.118 109.032 141.282 109.46L144.88 118.858ZM148.339 112.029C147.888 110.852 147.734 109.634 147.876 108.374C148.029 107.111 148.52 105.947 149.35 104.882C150.181 103.817 151.359 102.992 152.887 102.407C154.424 101.819 155.864 101.647 157.206 101.891C158.545 102.126 159.695 102.667 160.656 103.515C161.612 104.354 162.32 105.371 162.778 106.568C163.232 107.754 163.388 108.977 163.246 110.237C163.1 111.486 162.606 112.645 161.766 113.714C160.936 114.779 159.757 115.604 158.23 116.189C156.683 116.781 155.24 116.96 153.901 116.725C152.562 116.491 151.412 115.949 150.452 115.101C149.501 114.25 148.797 113.225 148.339 112.029ZM151.237 110.903C151.606 111.866 152.109 112.716 152.749 113.452C153.384 114.18 154.109 114.689 154.923 114.979C155.736 115.27 156.572 115.251 157.428 114.924C158.42 114.544 159.151 113.963 159.621 113.18C160.091 112.398 160.325 111.522 160.322 110.553C160.325 109.57 160.136 108.583 159.757 107.591C159.38 106.608 158.86 105.731 158.197 104.959C157.533 104.187 156.789 103.641 155.963 103.321C155.148 102.997 154.332 102.992 153.515 103.305C152.552 103.673 151.836 104.265 151.367 105.081C150.898 105.896 150.66 106.818 150.653 107.847C150.655 108.872 150.85 109.891 151.237 110.903Z" fill="black"/>
<path d="M13.7545 36.2138C14.0647 36.5511 14.3919 36.6607 14.736 36.5423C15.0877 36.417 15.5039 36.1616 15.9844 35.7762C16.3199 35.5101 16.5855 35.3295 16.7811 35.2345C16.9768 35.1395 17.1416 35.1648 17.2756 35.3105C17.2897 35.3258 17.3375 35.4163 17.419 35.5818L10.6568 41.8014C10.5415 41.7376 10.4663 41.6865 10.431 41.6482C10.3111 41.5179 10.3029 41.3627 10.4062 41.1827C10.5025 40.9951 10.6864 40.741 10.9578 40.4206C11.2069 40.1067 11.4022 39.8421 11.5439 39.6268C11.6856 39.4116 11.7652 39.1827 11.7827 38.9402C11.8079 38.6906 11.7218 38.4584 11.5243 38.2437L4.73361 30.8605C4.53616 30.6458 4.31202 30.5406 4.06119 30.5449C3.81803 30.5421 3.58329 30.6023 3.35697 30.7256C3.13066 30.8488 2.85067 31.0214 2.51702 31.2434C2.17509 31.4871 1.91013 31.6529 1.72215 31.7409C1.52712 31.8212 1.36966 31.7962 1.24978 31.6659C1.21452 31.6276 1.16992 31.5483 1.11597 31.4281L7.87818 25.2085C8.03639 25.3036 8.12255 25.3588 8.13665 25.3741C8.27063 25.5198 8.28211 25.6862 8.17108 25.8732C8.06005 26.0602 7.85794 26.3098 7.56475 26.6219C7.14061 27.0686 6.8514 27.462 6.69712 27.8021C6.5505 28.1351 6.63232 28.4702 6.9426 28.8076L13.7545 36.2138ZM23.5252 26.8026C23.8945 26.4346 24.13 26.0906 24.2319 25.7705C24.3337 25.4504 24.3528 25.1711 24.289 24.9325C24.2253 24.6939 24.1154 24.4129 23.9593 24.0893C23.8027 23.7805 23.7095 23.5407 23.6798 23.3699C23.6507 23.1844 23.732 23.0035 23.9236 22.8272L24.2659 22.5761L27.0016 26.7046L19.8139 33.3155L19.2749 32.9833L18.9754 26.1258C18.9455 25.4316 18.7723 24.6355 18.456 23.7376C18.1473 22.8327 17.7462 22.1119 17.2526 21.5752C16.7942 21.0769 16.2819 20.8122 15.7155 20.7811C15.1568 20.743 14.5593 21.0166 13.923 21.6019C13.4399 22.0462 13.0121 22.5812 12.6395 23.207C12.2668 23.8328 12.0338 24.3796 11.9406 24.8476L10.9154 24.2407C10.9716 23.4248 11.2428 22.5809 11.7289 21.7092C12.2151 20.8375 12.8377 20.0526 13.5967 19.3545C14.187 18.8115 14.8372 18.4259 15.5471 18.1975C16.257 17.9692 16.955 17.9357 17.6413 18.0971C18.3352 18.2514 18.9466 18.6161 19.4754 19.1911C19.9902 19.7508 20.3623 20.5478 20.5919 21.5821C20.822 22.6017 20.9189 23.8996 20.8825 25.4757L20.7881 29.32L23.5252 26.8026Z" fill="black"/>
<path d="M215.168 146.03L214.653 145.463L216.095 131.368C216.779 130.843 217.698 130.303 218.853 129.748L223.815 140.07L225.688 139.17C225.97 139.034 226.225 139.206 226.456 139.685C226.546 139.872 226.606 140.057 226.636 140.24C226.67 140.408 226.66 140.506 226.603 140.533L224.533 141.528L225.907 144.386C226.052 144.687 226.285 144.835 226.606 144.831C226.928 144.826 227.344 144.742 227.854 144.577C228.21 144.476 228.469 144.415 228.633 144.394C228.81 144.378 228.926 144.426 228.98 144.539C229.021 144.624 229.038 144.708 229.032 144.791L221.456 148.434C221.369 148.348 221.314 148.282 221.291 148.235C221.223 148.095 221.254 147.953 221.382 147.81C221.523 147.673 221.755 147.492 222.075 147.269C222.522 146.973 222.848 146.701 223.052 146.453C223.261 146.214 223.291 145.939 223.142 145.629L221.801 142.841L215.168 146.03ZM216.112 143.773L221.097 141.377L217.177 133.223L216.112 143.773Z" fill="black"/>
<path d="M100.63 21.49L101.046 20.8464L115.038 18.6222C115.721 19.1482 116.479 19.898 117.312 20.8715L108.609 28.3171L109.96 29.8962C110.163 30.1336 110.063 30.425 109.66 30.7704C109.501 30.9058 109.338 31.0113 109.169 31.0869C109.016 31.1636 108.919 31.1782 108.878 31.1307L107.385 29.3854L104.975 31.4474C104.721 31.6641 104.638 31.9272 104.725 32.2369C104.811 32.5466 105 32.9269 105.29 33.378C105.479 33.6957 105.605 33.9308 105.667 34.0834C105.728 34.2507 105.711 34.3749 105.616 34.4562C105.545 34.5171 105.468 34.5555 105.385 34.5712L99.9204 28.1837C99.9804 28.0775 100.03 28.0075 100.07 27.9737C100.188 27.8721 100.333 27.8649 100.504 27.952C100.673 28.0539 100.907 28.2309 101.205 28.4831C101.606 28.8394 101.952 29.0843 102.245 29.2179C102.529 29.3583 102.802 29.3167 103.063 29.0933L105.414 27.0821L100.63 21.49ZM103.053 21.8227L106.649 26.0257L113.523 20.1444L103.053 21.8227Z" fill="black"/>
<path d="M25.1846 151.335C25.2248 150.816 25.1791 150.401 25.0477 150.092C24.9162 149.783 24.7486 149.559 24.5447 149.419C24.3408 149.28 24.0743 149.139 23.7451 148.995C23.425 148.863 23.198 148.742 23.0641 148.632C22.9211 148.51 22.8648 148.32 22.8952 148.061L22.991 147.648L27.7569 148.995L26.6161 158.694L25.9908 158.793L21.2933 153.788C20.818 153.281 20.1678 152.791 19.3426 152.316C18.5186 151.831 17.7445 151.546 17.0204 151.461C16.3479 151.382 15.7868 151.515 15.3371 151.861C14.8886 152.196 14.6139 152.793 14.5129 153.651C14.4362 154.303 14.4606 154.988 14.5859 155.705C14.7113 156.423 14.8912 156.989 15.1255 157.405L13.9525 157.613C13.4632 156.958 13.1187 156.141 12.9191 155.163C12.7195 154.185 12.6799 153.184 12.8004 152.16C12.8941 151.363 13.1357 150.647 13.5251 150.011C13.9146 149.375 14.4221 148.895 15.0477 148.57C15.6745 148.234 16.3758 148.112 17.1517 148.204C17.9069 148.293 18.7087 148.654 19.557 149.289C20.3962 149.912 21.3158 150.833 22.3156 152.052L24.7502 155.029L25.1846 151.335ZM21.1507 144.3C19.8989 144.153 18.7485 143.724 17.6993 143.013C16.6514 142.292 15.8484 141.317 15.2903 140.087C14.7323 138.857 14.5487 137.43 14.7398 135.806C14.9321 134.171 15.4481 132.816 16.2879 131.74C17.1173 130.663 18.1305 129.896 19.3275 129.439C20.5142 128.981 21.7437 128.826 23.0162 128.976C24.2783 129.124 25.434 129.554 26.4831 130.265C27.5219 130.974 28.3198 131.949 28.8766 133.189C29.4347 134.419 29.6182 135.846 29.4271 137.47C29.2337 139.115 28.7222 140.476 27.8928 141.554C27.0633 142.631 26.0501 143.398 24.8531 143.855C23.6573 144.302 22.4232 144.45 21.1507 144.3ZM21.4984 141.21C22.5226 141.331 23.5094 141.279 24.4587 141.055C25.3977 140.83 26.1849 140.424 26.8202 139.838C27.4555 139.252 27.8267 138.504 27.9338 137.594C28.0579 136.539 27.8826 135.621 27.4079 134.842C26.9332 134.062 26.266 133.449 25.4061 133.001C24.537 132.543 23.5749 132.251 22.5197 132.127C21.4748 132.004 20.4564 132.057 19.4645 132.287C18.4726 132.516 17.6434 132.922 16.9771 133.505C16.3119 134.077 15.9283 134.797 15.826 135.666C15.7056 136.69 15.8976 137.599 16.4021 138.393C16.9066 139.186 17.6128 139.825 18.5208 140.31C19.43 140.784 20.4225 141.084 21.4984 141.21Z" fill="black"/>
<path d="M278.033 3.56834C278.073 3.04864 278.027 2.63422 277.896 2.32508C277.764 2.01594 277.597 1.7917 277.393 1.65234C277.189 1.51299 276.922 1.37151 276.593 1.2279C276.273 1.09585 276.046 0.974753 275.912 0.864609C275.769 0.742902 275.713 0.552732 275.743 0.294098L275.839 -0.119412L280.605 1.22781L279.464 10.9266L278.839 11.0261L274.141 6.02118C273.666 5.51427 273.016 5.02349 272.191 4.54884C271.367 4.06384 270.593 3.77875 269.868 3.69357C269.196 3.61447 268.635 3.74776 268.185 4.09342C267.737 4.42874 267.462 5.02573 267.361 5.8844C267.284 6.53615 267.309 7.22077 267.434 7.93825C267.559 8.65572 267.739 9.22228 267.974 9.63791L266.801 9.84606C266.311 9.19066 265.967 8.374 265.767 7.39606C265.568 6.41813 265.528 5.41707 265.649 4.39288C265.742 3.59629 265.984 2.88002 266.373 2.24408C266.763 1.60814 267.27 1.12768 267.896 0.802704C268.523 0.467381 269.224 0.345352 270 0.436618C270.755 0.525451 271.557 0.887216 272.405 1.52191C273.244 2.14505 274.164 3.06607 275.164 4.28497L277.598 7.26163L278.033 3.56834ZM273.999 -3.46669C272.747 -3.61394 271.597 -4.04294 270.547 -4.7537C269.5 -5.47481 268.697 -6.45029 268.138 -7.68016C267.58 -8.91002 267.397 -10.3371 267.588 -11.9613C267.78 -13.5958 268.296 -14.9511 269.136 -16.027C269.965 -17.1042 270.979 -17.8713 272.176 -18.3283C273.362 -18.7866 274.592 -18.9409 275.864 -18.7912C277.126 -18.6427 278.282 -18.2131 279.331 -17.5024C280.37 -16.7928 281.168 -15.8179 281.725 -14.5777C282.283 -13.3479 282.466 -11.9208 282.275 -10.2966C282.082 -8.65169 281.57 -7.29066 280.741 -6.21352C279.911 -5.13637 278.898 -4.36927 277.701 -3.91223C276.505 -3.46553 275.271 -3.31702 273.999 -3.46669ZM274.347 -6.5566C275.371 -6.43613 276.358 -6.48788 277.307 -6.71184C278.246 -6.93703 279.033 -7.34264 279.668 -7.92869C280.304 -8.51473 280.675 -9.26295 280.782 -10.1733C280.906 -11.2286 280.731 -12.1459 280.256 -12.9255C279.781 -13.705 279.114 -14.3184 278.254 -14.7657C277.385 -15.2245 276.423 -15.516 275.368 -15.6401C274.323 -15.763 273.305 -15.7098 272.313 -15.4803C271.321 -15.2509 270.492 -14.8449 269.825 -14.2626C269.16 -13.6905 268.776 -12.97 268.674 -12.101C268.554 -11.0768 268.746 -10.1679 269.25 -9.37438C269.755 -8.58084 270.461 -7.94188 271.369 -7.4575C272.278 -6.98346 273.271 -6.68316 274.347 -6.5566Z" fill="black"/>
<path d="M88.4261 159.044C88.0753 159.339 87.9514 159.661 88.0543 160.01C88.164 160.367 88.4006 160.794 88.7643 161.291C89.0153 161.638 89.1839 161.911 89.2702 162.111C89.3564 162.311 89.3238 162.474 89.1724 162.602C89.1564 162.615 89.0639 162.659 88.8949 162.733L82.9813 155.701C83.0502 155.589 83.1045 155.516 83.1444 155.483C83.2799 155.369 83.4353 155.367 83.6105 155.479C83.7937 155.583 84.0393 155.778 84.3474 156.063C84.65 156.326 84.9057 156.533 85.1144 156.684C85.3232 156.835 85.5483 156.925 85.7898 156.953C86.0381 156.989 86.2738 156.914 86.497 156.726L94.1741 150.269C94.3974 150.082 94.5124 149.862 94.5193 149.611C94.5329 149.369 94.4831 149.132 94.37 148.9C94.2569 148.668 94.0969 148.381 93.89 148.038C93.6617 147.685 93.5077 147.413 93.4282 147.222C93.3566 147.023 93.3885 146.867 93.5241 146.753C93.5639 146.72 93.6451 146.679 93.7676 146.63L99.6811 153.661C99.5791 153.815 99.5201 153.899 99.5042 153.912C99.3527 154.04 99.186 154.044 99.0041 153.925C98.8222 153.805 98.5818 153.592 98.283 153.286C97.8555 152.842 97.4754 152.536 97.1425 152.366C96.8163 152.205 96.4779 152.272 96.1271 152.567L88.4261 159.044ZM96.011 160.076C96.9756 159.265 98.0761 158.72 99.3126 158.442C100.556 158.173 101.817 158.256 103.095 158.691C104.373 159.127 105.539 159.971 106.591 161.222C107.651 162.482 108.285 163.786 108.494 165.135C108.71 166.477 108.575 167.741 108.089 168.926C107.61 170.104 106.88 171.106 105.899 171.931C104.927 172.749 103.822 173.297 102.586 173.574C101.357 173.845 100.101 173.759 98.8156 173.315C97.5373 172.879 96.3718 172.036 95.3192 170.784C94.2531 169.517 93.6117 168.212 93.3949 166.87C93.1781 165.528 93.3131 164.264 93.7999 163.079C94.2934 161.902 95.0304 160.901 96.011 160.076ZM98.0243 162.445C97.2351 163.109 96.5969 163.864 96.1099 164.709C95.6309 165.547 95.3874 166.399 95.3793 167.263C95.3712 168.127 95.6621 168.91 96.2521 169.612C96.936 170.425 97.7245 170.925 98.6176 171.113C99.5107 171.301 100.415 171.235 101.33 170.915C102.259 170.596 103.13 170.095 103.944 169.411C104.749 168.734 105.407 167.955 105.92 167.075C106.432 166.195 106.704 165.313 106.736 164.429C106.775 163.552 106.512 162.779 105.949 162.11C105.285 161.32 104.492 160.838 103.568 160.662C102.644 160.486 101.695 160.563 100.72 160.893C99.752 161.231 98.8534 161.748 98.0243 162.445ZM107.637 173.899C108.602 173.088 109.702 172.544 110.939 172.266C112.182 171.996 113.442 172.079 114.721 172.515C115.999 172.951 117.165 173.794 118.217 175.046C119.277 176.306 119.911 177.61 120.119 178.959C120.336 180.301 120.201 181.564 119.714 182.75C119.236 183.928 118.506 184.93 117.525 185.754C116.553 186.572 115.448 187.12 114.212 187.398C112.983 187.669 111.727 187.582 110.442 187.139C109.163 186.703 107.998 185.859 106.945 184.608C105.879 183.34 105.238 182.035 105.021 180.693C104.804 179.351 104.939 178.088 105.426 176.902C105.919 175.725 106.656 174.724 107.637 173.899ZM109.65 176.269C108.861 176.933 108.223 177.687 107.736 178.532C107.257 179.371 107.013 180.222 107.005 181.086C106.997 181.951 107.288 182.734 107.878 183.435C108.562 184.248 109.35 184.749 110.244 184.937C111.137 185.125 112.041 185.059 112.955 184.739C113.885 184.42 114.756 183.918 115.569 183.234C116.375 182.557 117.033 181.779 117.545 180.899C118.058 180.019 118.33 179.137 118.362 178.252C118.4 177.376 118.138 176.603 117.575 175.933C116.911 175.144 116.118 174.661 115.194 174.486C114.27 174.31 113.321 174.387 112.346 174.716C111.378 175.054 110.479 175.572 109.65 176.269Z" fill="black"/>
<path d="M194.172 35.5263C193.722 34.3266 193.461 33.2375 193.389 32.2588C193.332 31.2771 193.576 30.3671 194.121 29.5288C194.547 28.8739 195.122 28.4093 195.847 28.1352C196.572 27.8611 197.402 27.817 198.338 28.0028C199.287 28.1855 200.286 28.6176 201.334 29.299C202.312 29.935 203.015 30.6218 203.442 31.3595C203.875 32.0884 204.083 32.7824 204.064 33.4413C204.054 34.106 203.896 34.6741 203.59 35.1456C203.226 35.7045 202.791 36.1357 202.283 36.4391C201.775 36.7425 201.218 36.9583 200.613 37.0866C200.022 37.2118 199.296 37.3053 198.436 37.3671C198.898 38.376 199.245 39.285 199.477 40.0942C199.717 40.9092 199.802 41.7533 199.731 42.6267C199.66 43.5 199.347 44.3646 198.79 45.2204C198.353 45.8928 197.764 46.398 197.022 46.7358C196.289 47.0793 195.367 47.1506 194.255 46.9495C193.149 46.7396 191.884 46.1719 190.461 45.2463C189.404 44.5592 188.583 43.7769 187.998 42.8995C187.428 42.019 187.116 41.1327 187.062 40.2405C187.017 39.354 187.233 38.544 187.71 37.8104C188.119 37.1817 188.65 36.7003 189.302 36.3664C189.963 36.0381 190.677 35.8191 191.444 35.7092C192.22 35.605 193.129 35.544 194.172 35.5263ZM197.538 35.4228C198.749 35.4148 199.693 35.3202 200.369 35.1391C201.052 34.9493 201.584 34.5618 201.964 33.9767C202.356 33.3742 202.482 32.7602 202.342 32.1348C202.207 31.5007 201.664 30.8742 200.712 30.2552C199.874 29.7101 199.121 29.4442 198.454 29.4576C197.795 29.4767 197.282 29.77 196.913 30.3377C196.492 30.9839 196.356 31.7092 196.504 32.5136C196.652 33.318 196.997 34.2878 197.538 35.4228ZM196.281 43.3465C196.565 42.9099 196.689 42.413 196.654 41.8557C196.633 41.2955 196.517 40.729 196.305 40.1565C196.099 39.5752 195.783 38.8103 195.356 37.8617L195.205 37.5211C194.133 37.5073 193.252 37.5246 192.562 37.573C191.886 37.6182 191.269 37.7452 190.711 37.9538C190.159 38.1537 189.74 38.472 189.457 38.9086C188.855 39.8343 188.706 40.7692 189.012 41.7134C189.326 42.6633 190.099 43.5385 191.33 44.3392C192.064 44.8162 192.747 45.0555 193.38 45.0569C194.027 45.0553 194.591 44.8942 195.073 44.5738C195.555 44.2534 195.957 43.8443 196.281 43.3465Z" fill="black"/>
</g>
<defs>
<clipPath id="clip0">
<rect width="317" height="205" fill="white"/>
</clipPath>
</defs>
</svg>
