<svg width="1673" height="484" viewBox="0 0 1673 484" fill="none" xmlns="http://www.w3.org/2000/svg">
<line x1="565" y1="421" x2="565" y2="61" stroke="#939393" stroke-width="6" stroke-dasharray="10 10"/>
<path d="M223.393 160.499H158.496V337H114.844V160.499H50.8203V125.141H223.393V160.499ZM292.509 277.487L321.61 179.561H366.718L303.422 361.445L299.93 369.739C290.52 390.304 274.999 400.587 253.367 400.587C247.256 400.587 241.048 399.665 234.742 397.822V365.956L241.145 366.102C249.099 366.102 255.016 364.889 258.896 362.464C262.874 360.039 265.978 356.013 268.209 350.387L273.156 337.437L218.009 179.561H263.262L292.509 277.487ZM525.03 259.735C525.03 283.987 519.501 303.436 508.442 318.084C497.481 332.635 482.639 339.91 463.917 339.91C448.008 339.91 435.155 334.381 425.357 323.322V397.531H383.306V179.561H422.302L423.757 194.984C433.942 182.762 447.232 176.65 463.626 176.65C483.027 176.65 498.111 183.829 508.879 198.186C519.646 212.542 525.03 232.331 525.03 257.553V259.735ZM482.979 256.68C482.979 242.032 480.359 230.731 475.121 222.776C469.98 214.822 462.462 210.845 452.567 210.845C439.375 210.845 430.305 215.889 425.357 225.978V290.438C430.499 300.817 439.666 306.007 452.858 306.007C472.938 306.007 482.979 289.564 482.979 256.68ZM544.674 256.825C544.674 241.207 547.681 227.287 553.695 215.064C559.71 202.842 568.343 193.384 579.596 186.69C590.945 179.997 604.09 176.65 619.028 176.65C640.272 176.65 657.588 183.15 670.975 196.148C684.458 209.147 691.976 226.802 693.528 249.113L693.819 259.881C693.819 284.035 687.077 303.436 673.594 318.084C660.11 332.635 642.019 339.91 619.319 339.91C596.62 339.91 578.48 332.635 564.899 318.084C551.416 303.533 544.674 283.744 544.674 258.717V256.825ZM586.726 259.881C586.726 274.82 589.539 286.266 595.165 294.221C600.791 302.078 608.843 306.007 619.319 306.007C629.505 306.007 637.459 302.127 643.183 294.366C648.906 286.509 651.768 273.995 651.768 256.825C651.768 242.177 648.906 230.828 643.183 222.776C637.459 214.725 629.408 210.699 619.028 210.699C608.746 210.699 600.791 214.725 595.165 222.776C589.539 230.731 586.726 243.099 586.726 259.881ZM713.608 257.116C713.608 232.962 719.332 213.512 730.778 198.768C742.322 184.023 757.843 176.65 777.341 176.65C794.608 176.65 808.043 182.568 817.646 194.402L819.393 179.561H857.516V331.762C857.516 345.536 854.363 357.517 848.058 367.702C841.849 377.888 833.07 385.648 821.721 390.983C810.371 396.319 797.081 398.986 781.852 398.986C770.308 398.986 759.055 396.658 748.094 392.002C737.132 387.443 728.838 381.525 723.212 374.25L741.837 348.641C752.313 360.378 765.021 366.247 779.96 366.247C791.116 366.247 799.798 363.24 806.006 357.226C812.214 351.308 815.318 342.869 815.318 331.907V323.468C805.618 334.429 792.862 339.91 777.05 339.91C758.134 339.91 742.807 332.538 731.069 317.793C719.429 302.951 713.608 283.308 713.608 258.862V257.116ZM755.66 260.172C755.66 274.432 758.522 285.636 764.245 293.784C769.968 301.836 777.826 305.861 787.817 305.861C800.622 305.861 809.789 301.06 815.318 291.456V225.25C809.692 215.646 800.622 210.845 788.108 210.845C778.02 210.845 770.065 214.967 764.245 223.213C758.522 231.458 755.66 243.778 755.66 260.172ZM978.433 218.993C972.709 218.217 967.665 217.829 963.3 217.829C947.391 217.829 936.963 223.213 932.016 233.98V337H889.964V179.561H929.688L930.852 198.331C939.291 183.877 950.98 176.65 965.919 176.65C970.575 176.65 974.94 177.281 979.015 178.542L978.433 218.993ZM1085.67 337C1083.73 333.217 1082.33 328.512 1081.45 322.886C1071.27 334.235 1058.03 339.91 1041.73 339.91C1026.3 339.91 1013.5 335.448 1003.31 326.523C993.226 317.599 988.182 306.346 988.182 292.766C988.182 276.081 994.341 263.276 1006.66 254.352C1019.08 245.427 1036.98 240.916 1060.35 240.819H1079.71V231.798C1079.71 224.522 1077.81 218.702 1074.03 214.337C1070.35 209.972 1064.48 207.789 1056.42 207.789C1049.34 207.789 1043.77 209.487 1039.69 212.882C1035.71 216.277 1033.73 220.933 1033.73 226.851H991.674C991.674 217.732 994.487 209.293 1000.11 201.532C1005.74 193.772 1013.69 187.709 1023.98 183.344C1034.26 178.882 1045.8 176.65 1058.61 176.65C1078.01 176.65 1093.38 181.549 1104.73 191.347C1116.18 201.047 1121.9 214.725 1121.9 232.38V300.623C1122 315.562 1124.09 326.863 1128.16 334.526V337H1085.67ZM1050.9 307.753C1057.1 307.753 1062.83 306.395 1068.07 303.679C1073.3 300.866 1077.18 297.131 1079.71 292.475V265.41H1063.99C1042.94 265.41 1031.74 272.686 1030.38 287.236L1030.23 289.71C1030.23 294.948 1032.08 299.265 1035.76 302.66C1039.45 306.055 1044.49 307.753 1050.9 307.753ZM1295.93 259.735C1295.93 283.987 1290.4 303.436 1279.34 318.084C1268.38 332.635 1253.54 339.91 1234.82 339.91C1218.91 339.91 1206.06 334.381 1196.26 323.322V397.531H1154.21V179.561H1193.2L1194.66 194.984C1204.84 182.762 1218.13 176.65 1234.53 176.65C1253.93 176.65 1269.01 183.829 1279.78 198.186C1290.55 212.542 1295.93 232.331 1295.93 257.553V259.735ZM1253.88 256.68C1253.88 242.032 1251.26 230.731 1246.02 222.776C1240.88 214.822 1233.36 210.845 1223.47 210.845C1210.28 210.845 1201.21 215.889 1196.26 225.978V290.438C1201.4 300.817 1210.57 306.007 1223.76 306.007C1243.84 306.007 1253.88 289.564 1253.88 256.68ZM1363.16 196.73C1374.31 183.344 1388.33 176.65 1405.21 176.65C1439.35 176.65 1456.67 196.488 1457.15 236.163V337H1415.1V237.327C1415.1 228.306 1413.16 221.661 1409.28 217.393C1405.4 213.027 1398.95 210.845 1389.93 210.845C1377.61 210.845 1368.68 215.598 1363.16 225.104V337H1321.1V113.5H1363.16V196.73ZM1547.66 277.487L1576.76 179.561H1621.87L1558.57 361.445L1555.08 369.739C1545.67 390.304 1530.15 400.587 1508.52 400.587C1502.41 400.587 1496.2 399.665 1489.89 397.822V365.956L1496.29 366.102C1504.25 366.102 1510.17 364.889 1514.05 362.464C1518.02 360.039 1521.13 356.013 1523.36 350.387L1528.31 337.437L1473.16 179.561H1518.41L1547.66 277.487Z" fill="white"/>
<path d="M1319.5 111.5L1271 91V131.5L1319.5 111.5Z" fill="#F55045"/>
<path d="M50.5 125.5L2 105V145.5L50.5 125.5Z" fill="#9E7CFF"/>
<path d="M112.5 337.5L64 317V357.5L112.5 337.5Z" fill="#3BD7CD"/>
<path d="M891.5 180.5L843 160V200.5L891.5 180.5Z" fill="#F9BF2B"/>
<path d="M1488.5 398.5L1440 378V418.5L1488.5 398.5Z" fill="#4999E2"/>
<path d="M18.0259 84.1323C17.8654 86.3507 17.0441 88.0972 15.562 89.3716C14.0894 90.646 12.1447 91.2832 9.72803 91.2832C7.0848 91.2832 5.00326 90.3958 3.4834 88.6211C1.97298 86.8369 1.21777 84.3919 1.21777 81.2861V80.0259C1.21777 78.0435 1.56706 76.297 2.26562 74.7866C2.96419 73.2762 3.96012 72.1198 5.25342 71.3174C6.55615 70.5055 8.06657 70.0996 9.78467 70.0996C12.1636 70.0996 14.0799 70.7368 15.5337 72.0112C16.9875 73.2856 17.8276 75.0745 18.0542 77.3779H13.8062C13.7023 76.0469 13.3294 75.084 12.6875 74.4893C12.055 73.8851 11.0874 73.583 9.78467 73.583C8.36865 73.583 7.30664 74.0928 6.59863 75.1123C5.90007 76.1224 5.54134 77.6942 5.52246 79.8276V81.3853C5.52246 83.6131 5.85758 85.2415 6.52783 86.2705C7.20752 87.2995 8.27425 87.814 9.72803 87.814C11.0402 87.814 12.0173 87.5166 12.6592 86.9219C13.3105 86.3177 13.6834 85.3879 13.7778 84.1323H18.0259ZM29.4248 91C29.236 90.6318 29.0991 90.174 29.0142 89.6265C28.0229 90.731 26.7344 91.2832 25.1484 91.2832C23.6475 91.2832 22.4014 90.849 21.4102 89.9805C20.4284 89.112 19.9375 88.0169 19.9375 86.6953C19.9375 85.0716 20.5369 83.8255 21.7358 82.957C22.9442 82.0885 24.6859 81.6496 26.9609 81.6401H28.8442V80.7622C28.8442 80.0542 28.6602 79.4878 28.292 79.063C27.9333 78.6382 27.3621 78.4258 26.5786 78.4258C25.8895 78.4258 25.3467 78.591 24.9502 78.9214C24.5632 79.2518 24.3696 79.7049 24.3696 80.2808H20.2773C20.2773 79.3934 20.5511 78.5721 21.0986 77.8169C21.6462 77.0617 22.4202 76.4717 23.4209 76.0469C24.4215 75.6126 25.5449 75.3955 26.791 75.3955C28.679 75.3955 30.1753 75.8722 31.2798 76.8257C32.3937 77.7697 32.9507 79.1007 32.9507 80.8188V87.46C32.9601 88.9137 33.1631 90.0135 33.5596 90.7593V91H29.4248ZM26.0405 88.1538C26.6447 88.1538 27.2017 88.0216 27.7114 87.7573C28.2212 87.4836 28.5988 87.1201 28.8442 86.667V84.0332H27.3149C25.2664 84.0332 24.1761 84.7412 24.0439 86.1572L24.0298 86.3979C24.0298 86.9077 24.2091 87.3278 24.5679 87.6582C24.9266 87.9886 25.4175 88.1538 26.0405 88.1538ZM49.8862 83.481C49.8862 85.841 49.3481 87.7337 48.272 89.1592C47.2052 90.5752 45.7609 91.2832 43.939 91.2832C42.3908 91.2832 41.14 90.7451 40.1865 89.6689V96.8906H36.0942V75.6787H39.8892L40.0308 77.1797C41.022 75.9902 42.3153 75.3955 43.9106 75.3955C45.7987 75.3955 47.2666 76.0941 48.3145 77.4912C49.3623 78.8883 49.8862 80.8141 49.8862 83.2686V83.481ZM45.7939 83.1836C45.7939 81.7581 45.5391 80.6584 45.0293 79.8843C44.529 79.1102 43.7974 78.7231 42.8345 78.7231C41.5506 78.7231 40.668 79.214 40.1865 80.1958V86.4688C40.6868 87.4788 41.5789 87.9839 42.8628 87.9839C44.8169 87.9839 45.7939 86.3838 45.7939 83.1836ZM76.7056 91H72.4575V82.1641H64.1738V91H59.9258V70.3828H64.1738V78.7373H72.4575V70.3828H76.7056V91ZM87.2124 91.2832C84.9657 91.2832 83.1343 90.5941 81.7183 89.2158C80.3117 87.8376 79.6084 86.0015 79.6084 83.7075V83.311C79.6084 81.7723 79.9058 80.3988 80.5005 79.1904C81.0952 77.9727 81.9354 77.0381 83.021 76.3867C84.116 75.7259 85.3621 75.3955 86.7593 75.3955C88.855 75.3955 90.5023 76.0563 91.7012 77.3779C92.9095 78.6995 93.5137 80.5734 93.5137 82.9995V84.6704H83.7573C83.8895 85.6711 84.286 86.4735 84.9468 87.0776C85.617 87.6818 86.4619 87.9839 87.4814 87.9839C89.0579 87.9839 90.2899 87.4128 91.1772 86.2705L93.188 88.522C92.5744 89.3905 91.7437 90.0701 90.6958 90.561C89.6479 91.0425 88.4868 91.2832 87.2124 91.2832ZM86.7451 78.709C85.9333 78.709 85.2725 78.9827 84.7627 79.5303C84.2624 80.0778 83.9414 80.8613 83.7998 81.8809H89.4922V81.5552C89.4733 80.6489 89.2279 79.9504 88.7559 79.4595C88.2839 78.9591 87.6136 78.709 86.7451 78.709ZM100.169 91H96.0625V75.6787H100.169V91ZM95.8218 71.7139C95.8218 71.1003 96.0247 70.5952 96.4307 70.1987C96.846 69.8022 97.4077 69.604 98.1157 69.604C98.8143 69.604 99.3713 69.8022 99.7866 70.1987C100.202 70.5952 100.41 71.1003 100.41 71.7139C100.41 72.3369 100.197 72.8467 99.7725 73.2432C99.3571 73.6396 98.8049 73.8379 98.1157 73.8379C97.4266 73.8379 96.8696 73.6396 96.4448 73.2432C96.0295 72.8467 95.8218 72.3369 95.8218 71.7139ZM102.958 83.2261C102.958 80.8755 103.515 78.9827 104.629 77.5479C105.753 76.113 107.263 75.3955 109.161 75.3955C110.841 75.3955 112.148 75.9714 113.083 77.123L113.253 75.6787H116.963V90.4902C116.963 91.8307 116.656 92.9966 116.042 93.9878C115.438 94.979 114.584 95.7342 113.479 96.2534C112.375 96.7726 111.082 97.0322 109.6 97.0322C108.476 97.0322 107.381 96.8057 106.314 96.3525C105.248 95.9089 104.441 95.333 103.893 94.625L105.706 92.1328C106.725 93.2751 107.962 93.8462 109.416 93.8462C110.501 93.8462 111.346 93.5535 111.95 92.9683C112.554 92.3924 112.856 91.5711 112.856 90.5044V89.6831C111.912 90.7498 110.671 91.2832 109.132 91.2832C107.292 91.2832 105.8 90.5658 104.658 89.1309C103.525 87.6865 102.958 85.7749 102.958 83.396V83.2261ZM107.051 83.5234C107.051 84.9111 107.329 86.0015 107.886 86.7944C108.443 87.578 109.208 87.9697 110.18 87.9697C111.426 87.9697 112.318 87.5024 112.856 86.5679V80.125C112.309 79.1904 111.426 78.7231 110.208 78.7231C109.227 78.7231 108.453 79.1243 107.886 79.9268C107.329 80.7292 107.051 81.9281 107.051 83.5234ZM124.114 77.3496C125.199 76.0469 126.563 75.3955 128.206 75.3955C131.529 75.3955 133.214 77.326 133.261 81.187V91H129.169V81.3003C129.169 80.4224 128.98 79.7757 128.603 79.3604C128.225 78.9355 127.597 78.7231 126.719 78.7231C125.52 78.7231 124.652 79.1857 124.114 80.1108V91H120.021V69.25H124.114V77.3496ZM141.248 71.9121V75.6787H143.867V78.6807H141.248V86.3271C141.248 86.8936 141.356 87.2995 141.573 87.5449C141.79 87.7904 142.206 87.9131 142.819 87.9131C143.272 87.9131 143.674 87.88 144.023 87.814V90.915C143.221 91.1605 142.395 91.2832 141.545 91.2832C138.675 91.2832 137.212 89.8341 137.155 86.936V78.6807H134.918V75.6787H137.155V71.9121H141.248Z" fill="#9E7CFF"/>
<path d="M62.8408 393V372.383H70.0625C72.5641 372.383 74.4616 372.864 75.7549 373.827C77.0482 374.781 77.6948 376.182 77.6948 378.033C77.6948 379.043 77.4352 379.935 76.916 380.709C76.3968 381.474 75.6746 382.035 74.7495 382.394C75.8068 382.658 76.6375 383.192 77.2417 383.994C77.8553 384.797 78.1621 385.778 78.1621 386.939C78.1621 388.922 77.5296 390.423 76.2646 391.442C74.9997 392.462 73.1966 392.981 70.8555 393H62.8408ZM67.0889 384.022V389.587H70.728C71.7287 389.587 72.5075 389.351 73.0645 388.879C73.6309 388.398 73.9141 387.737 73.9141 386.897C73.9141 385.009 72.937 384.051 70.9829 384.022H67.0889ZM67.0889 381.021H70.2324C72.3753 380.983 73.4468 380.128 73.4468 378.458C73.4468 377.523 73.173 376.853 72.6255 376.447C72.0874 376.031 71.2331 375.824 70.0625 375.824H67.0889V381.021ZM89.9717 393C89.7829 392.632 89.646 392.174 89.561 391.626C88.5698 392.731 87.2812 393.283 85.6953 393.283C84.1943 393.283 82.9482 392.849 81.957 391.98C80.9753 391.112 80.4844 390.017 80.4844 388.695C80.4844 387.072 81.0838 385.826 82.2827 384.957C83.491 384.089 85.2327 383.65 87.5078 383.64H89.3911V382.762C89.3911 382.054 89.207 381.488 88.8389 381.063C88.4801 380.638 87.909 380.426 87.1255 380.426C86.4364 380.426 85.8936 380.591 85.4971 380.921C85.11 381.252 84.9165 381.705 84.9165 382.281H80.8242C80.8242 381.393 81.098 380.572 81.6455 379.817C82.193 379.062 82.9671 378.472 83.9678 378.047C84.9684 377.613 86.0918 377.396 87.3379 377.396C89.2259 377.396 90.7222 377.872 91.8267 378.826C92.9406 379.77 93.4976 381.101 93.4976 382.819V389.46C93.507 390.914 93.71 392.014 94.1064 392.759V393H89.9717ZM86.5874 390.154C87.1916 390.154 87.7485 390.022 88.2583 389.757C88.7681 389.484 89.1457 389.12 89.3911 388.667V386.033H87.8618C85.8133 386.033 84.723 386.741 84.5908 388.157L84.5767 388.398C84.5767 388.908 84.756 389.328 85.1147 389.658C85.4735 389.989 85.9644 390.154 86.5874 390.154ZM104.939 388.766C104.939 388.266 104.689 387.874 104.188 387.591C103.698 387.298 102.905 387.039 101.81 386.812C98.1657 386.047 96.3438 384.499 96.3438 382.167C96.3438 380.808 96.9054 379.675 98.0288 378.769C99.1616 377.853 100.639 377.396 102.461 377.396C104.406 377.396 105.958 377.853 107.12 378.769C108.29 379.685 108.875 380.874 108.875 382.337H104.783C104.783 381.752 104.594 381.271 104.217 380.893C103.839 380.506 103.249 380.312 102.447 380.312C101.758 380.312 101.224 380.468 100.847 380.78C100.469 381.091 100.28 381.488 100.28 381.969C100.28 382.422 100.493 382.791 100.917 383.074C101.352 383.347 102.079 383.588 103.098 383.796C104.118 383.994 104.977 384.221 105.675 384.476C107.837 385.269 108.918 386.642 108.918 388.596C108.918 389.993 108.319 391.126 107.12 391.995C105.921 392.854 104.373 393.283 102.475 393.283C101.191 393.283 100.049 393.057 99.0483 392.604C98.0571 392.141 97.2783 391.513 96.7119 390.72C96.1455 389.918 95.8623 389.054 95.8623 388.129H99.7422C99.7799 388.856 100.049 389.413 100.549 389.8C101.05 390.187 101.72 390.38 102.56 390.38C103.344 390.38 103.934 390.234 104.33 389.941C104.736 389.639 104.939 389.248 104.939 388.766ZM118.618 393.283C116.371 393.283 114.54 392.594 113.124 391.216C111.717 389.838 111.014 388.001 111.014 385.708V385.311C111.014 383.772 111.311 382.399 111.906 381.19C112.5 379.973 113.341 379.038 114.426 378.387C115.521 377.726 116.767 377.396 118.165 377.396C120.26 377.396 121.908 378.056 123.106 379.378C124.315 380.7 124.919 382.573 124.919 385V386.67H115.163C115.295 387.671 115.691 388.473 116.352 389.078C117.022 389.682 117.867 389.984 118.887 389.984C120.463 389.984 121.695 389.413 122.583 388.271L124.593 390.522C123.98 391.39 123.149 392.07 122.101 392.561C121.053 393.042 119.892 393.283 118.618 393.283ZM118.15 380.709C117.339 380.709 116.678 380.983 116.168 381.53C115.668 382.078 115.347 382.861 115.205 383.881H120.897V383.555C120.879 382.649 120.633 381.95 120.161 381.459C119.689 380.959 119.019 380.709 118.15 380.709ZM131.574 393H127.468V371.25H131.574V393ZM139.277 393H135.171V377.679H139.277V393ZM134.93 373.714C134.93 373.1 135.133 372.595 135.539 372.199C135.954 371.802 136.516 371.604 137.224 371.604C137.923 371.604 138.48 371.802 138.895 372.199C139.31 372.595 139.518 373.1 139.518 373.714C139.518 374.337 139.306 374.847 138.881 375.243C138.465 375.64 137.913 375.838 137.224 375.838C136.535 375.838 135.978 375.64 135.553 375.243C135.138 374.847 134.93 374.337 134.93 373.714ZM146.428 377.679L146.556 379.449C147.651 378.08 149.119 377.396 150.959 377.396C152.583 377.396 153.792 377.872 154.584 378.826C155.377 379.779 155.783 381.205 155.802 383.102V393H151.71V383.201C151.71 382.333 151.521 381.705 151.144 381.318C150.766 380.921 150.138 380.723 149.26 380.723C148.109 380.723 147.245 381.214 146.669 382.196V393H142.577V377.679H146.428ZM165.969 393.283C163.722 393.283 161.891 392.594 160.475 391.216C159.069 389.838 158.365 388.001 158.365 385.708V385.311C158.365 383.772 158.663 382.399 159.257 381.19C159.852 379.973 160.692 379.038 161.778 378.387C162.873 377.726 164.119 377.396 165.516 377.396C167.612 377.396 169.259 378.056 170.458 379.378C171.666 380.7 172.271 382.573 172.271 385V386.67H162.514C162.646 387.671 163.043 388.473 163.704 389.078C164.374 389.682 165.219 389.984 166.238 389.984C167.815 389.984 169.047 389.413 169.934 388.271L171.945 390.522C171.331 391.39 170.5 392.07 169.453 392.561C168.405 393.042 167.244 393.283 165.969 393.283ZM165.502 380.709C164.69 380.709 164.029 380.983 163.52 381.53C163.019 382.078 162.698 382.861 162.557 383.881H168.249V383.555C168.23 382.649 167.985 381.95 167.513 381.459C167.041 380.959 166.37 380.709 165.502 380.709Z" fill="#3BD7CD"/>
<path d="M850.218 133.491L854.084 126.383H858.969L852.965 136.606L859.125 147H854.183L850.218 139.778L846.253 147H841.312L847.471 136.606L841.467 126.383H846.353L850.218 133.491ZM866.757 139.821H858.785V136.521H866.757V139.821ZM887.091 147H882.843V138.164H874.56V147H870.312V126.383H874.56V134.737H882.843V126.383H887.091V147ZM897.598 147.283C895.351 147.283 893.52 146.594 892.104 145.216C890.697 143.838 889.994 142.001 889.994 139.708V139.311C889.994 137.772 890.292 136.399 890.886 135.19C891.481 133.973 892.321 133.038 893.407 132.387C894.502 131.726 895.748 131.396 897.145 131.396C899.241 131.396 900.888 132.056 902.087 133.378C903.295 134.7 903.899 136.573 903.899 139V140.67H894.143C894.275 141.671 894.672 142.473 895.333 143.078C896.003 143.682 896.848 143.984 897.867 143.984C899.444 143.984 900.676 143.413 901.563 142.271L903.574 144.522C902.96 145.39 902.129 146.07 901.082 146.561C900.034 147.042 898.873 147.283 897.598 147.283ZM897.131 134.709C896.319 134.709 895.658 134.983 895.148 135.53C894.648 136.078 894.327 136.861 894.186 137.881H899.878V137.555C899.859 136.649 899.614 135.95 899.142 135.459C898.67 134.959 897.999 134.709 897.131 134.709ZM910.555 147H906.448V131.679H910.555V147ZM906.208 127.714C906.208 127.1 906.41 126.595 906.816 126.199C907.232 125.802 907.793 125.604 908.501 125.604C909.2 125.604 909.757 125.802 910.172 126.199C910.588 126.595 910.795 127.1 910.795 127.714C910.795 128.337 910.583 128.847 910.158 129.243C909.743 129.64 909.191 129.838 908.501 129.838C907.812 129.838 907.255 129.64 906.831 129.243C906.415 128.847 906.208 128.337 906.208 127.714ZM913.344 139.226C913.344 136.875 913.901 134.983 915.015 133.548C916.139 132.113 917.649 131.396 919.546 131.396C921.227 131.396 922.534 131.971 923.469 133.123L923.639 131.679H927.349V146.49C927.349 147.831 927.042 148.997 926.428 149.988C925.824 150.979 924.97 151.734 923.865 152.253C922.761 152.773 921.467 153.032 919.985 153.032C918.862 153.032 917.767 152.806 916.7 152.353C915.633 151.909 914.826 151.333 914.279 150.625L916.091 148.133C917.111 149.275 918.347 149.846 919.801 149.846C920.887 149.846 921.732 149.554 922.336 148.968C922.94 148.392 923.242 147.571 923.242 146.504V145.683C922.298 146.75 921.057 147.283 919.518 147.283C917.677 147.283 916.186 146.566 915.043 145.131C913.911 143.687 913.344 141.775 913.344 139.396V139.226ZM917.437 139.523C917.437 140.911 917.715 142.001 918.272 142.794C918.829 143.578 919.594 143.97 920.566 143.97C921.812 143.97 922.704 143.502 923.242 142.568V136.125C922.695 135.19 921.812 134.723 920.594 134.723C919.612 134.723 918.838 135.124 918.272 135.927C917.715 136.729 917.437 137.928 917.437 139.523ZM934.5 133.35C935.585 132.047 936.949 131.396 938.592 131.396C941.915 131.396 943.6 133.326 943.647 137.187V147H939.555V137.3C939.555 136.422 939.366 135.776 938.988 135.36C938.611 134.936 937.983 134.723 937.105 134.723C935.906 134.723 935.038 135.186 934.5 136.111V147H930.407V125.25H934.5V133.35ZM951.633 127.912V131.679H954.253V134.681H951.633V142.327C951.633 142.894 951.742 143.299 951.959 143.545C952.176 143.79 952.591 143.913 953.205 143.913C953.658 143.913 954.059 143.88 954.409 143.814V146.915C953.606 147.16 952.78 147.283 951.931 147.283C949.061 147.283 947.598 145.834 947.541 142.936V134.681H945.304V131.679H947.541V127.912H951.633Z" fill="#F9BF2B"/>
<path d="M1284.48 70.752H1277.03L1275.62 75H1271.1L1278.77 54.3828H1282.71L1290.43 75H1285.91L1284.48 70.752ZM1278.18 67.311H1283.33L1280.74 59.5938L1278.18 67.311ZM1300.38 70.7661C1300.38 70.2658 1300.13 69.874 1299.63 69.5908C1299.14 69.2982 1298.35 69.0386 1297.25 68.812C1293.61 68.0474 1291.79 66.4992 1291.79 64.1675C1291.79 62.8081 1292.35 61.6753 1293.47 60.769C1294.6 59.8534 1296.08 59.3955 1297.9 59.3955C1299.85 59.3955 1301.4 59.8534 1302.56 60.769C1303.73 61.6847 1304.32 62.8742 1304.32 64.3374H1300.23C1300.23 63.7521 1300.04 63.2707 1299.66 62.8931C1299.28 62.506 1298.69 62.3125 1297.89 62.3125C1297.2 62.3125 1296.67 62.4683 1296.29 62.7798C1295.91 63.0913 1295.72 63.4878 1295.72 63.9692C1295.72 64.4224 1295.94 64.7905 1296.36 65.0737C1296.8 65.3475 1297.52 65.5882 1298.54 65.7959C1299.56 65.9941 1300.42 66.2207 1301.12 66.4756C1303.28 67.2686 1304.36 68.6421 1304.36 70.5962C1304.36 71.9933 1303.76 73.1261 1302.56 73.9946C1301.36 74.8537 1299.82 75.2832 1297.92 75.2832C1296.63 75.2832 1295.49 75.0566 1294.49 74.6035C1293.5 74.141 1292.72 73.5132 1292.16 72.7202C1291.59 71.9178 1291.31 71.054 1291.31 70.1289H1295.19C1295.22 70.8558 1295.49 71.4128 1295.99 71.7998C1296.49 72.1868 1297.16 72.3804 1298 72.3804C1298.79 72.3804 1299.38 72.234 1299.77 71.9414C1300.18 71.6393 1300.38 71.2476 1300.38 70.7661ZM1313.38 71.9839C1314.14 71.9839 1314.75 71.7762 1315.22 71.3608C1315.69 70.9455 1315.94 70.3932 1315.96 69.7041H1319.8C1319.79 70.7425 1319.5 71.696 1318.95 72.5645C1318.39 73.4235 1317.62 74.0938 1316.65 74.5752C1315.69 75.0472 1314.62 75.2832 1313.45 75.2832C1311.26 75.2832 1309.53 74.5894 1308.27 73.2017C1307 71.8045 1306.37 69.8787 1306.37 67.4243V67.1553C1306.37 64.7952 1307 62.9119 1308.26 61.5054C1309.51 60.0988 1311.23 59.3955 1313.42 59.3955C1315.34 59.3955 1316.87 59.943 1318.03 61.0381C1319.19 62.1237 1319.78 63.5728 1319.8 65.3853H1315.96C1315.94 64.5923 1315.69 63.9504 1315.22 63.4595C1314.75 62.9591 1314.13 62.709 1313.35 62.709C1312.4 62.709 1311.68 63.0583 1311.19 63.7568C1310.71 64.446 1310.46 65.5693 1310.46 67.127V67.5518C1310.46 69.1283 1310.71 70.2611 1311.19 70.9502C1311.67 71.6393 1312.4 71.9839 1313.38 71.9839ZM1329.18 75.2832C1326.94 75.2832 1325.11 74.5941 1323.69 73.2158C1322.28 71.8376 1321.58 70.0015 1321.58 67.7075V67.311C1321.58 65.7723 1321.88 64.3988 1322.47 63.1904C1323.07 61.9727 1323.91 61.0381 1324.99 60.3867C1326.09 59.7259 1327.33 59.3955 1328.73 59.3955C1330.83 59.3955 1332.47 60.0563 1333.67 61.3779C1334.88 62.6995 1335.49 64.5734 1335.49 66.9995V68.6704H1325.73C1325.86 69.6711 1326.26 70.4735 1326.92 71.0776C1327.59 71.6818 1328.43 71.9839 1329.45 71.9839C1331.03 71.9839 1332.26 71.4128 1333.15 70.2705L1335.16 72.522C1334.55 73.3905 1333.72 74.0701 1332.67 74.561C1331.62 75.0425 1330.46 75.2832 1329.18 75.2832ZM1328.72 62.709C1327.9 62.709 1327.24 62.9827 1326.73 63.5303C1326.23 64.0778 1325.91 64.8613 1325.77 65.8809H1331.46V65.5552C1331.44 64.6489 1331.2 63.9504 1330.73 63.4595C1330.26 62.9591 1329.59 62.709 1328.72 62.709ZM1341.59 59.6787L1341.72 61.4487C1342.81 60.0799 1344.28 59.3955 1346.12 59.3955C1347.74 59.3955 1348.95 59.8722 1349.74 60.8257C1350.54 61.7791 1350.94 63.2046 1350.96 65.1021V75H1346.87V65.2012C1346.87 64.3327 1346.68 63.7049 1346.3 63.3179C1345.93 62.9214 1345.3 62.7231 1344.42 62.7231C1343.27 62.7231 1342.4 63.214 1341.83 64.1958V75H1337.74V59.6787H1341.59ZM1353.44 67.2261C1353.44 64.8377 1353.97 62.9355 1355.04 61.5195C1356.12 60.1035 1357.58 59.3955 1359.44 59.3955C1360.94 59.3955 1362.17 59.9525 1363.14 61.0664V53.25H1367.25V75H1363.55L1363.35 73.3716C1362.33 74.646 1361.02 75.2832 1359.42 75.2832C1357.61 75.2832 1356.16 74.5752 1355.07 73.1592C1353.98 71.7337 1353.44 69.756 1353.44 67.2261ZM1357.53 67.5234C1357.53 68.9583 1357.78 70.0581 1358.28 70.8228C1358.78 71.5874 1359.51 71.9697 1360.46 71.9697C1361.73 71.9697 1362.62 71.4364 1363.14 70.3696V64.3232C1362.63 63.2565 1361.75 62.7231 1360.49 62.7231C1358.52 62.7231 1357.53 64.3232 1357.53 67.5234ZM1377.47 75.2832C1375.22 75.2832 1373.39 74.5941 1371.98 73.2158C1370.57 71.8376 1369.87 70.0015 1369.87 67.7075V67.311C1369.87 65.7723 1370.16 64.3988 1370.76 63.1904C1371.35 61.9727 1372.19 61.0381 1373.28 60.3867C1374.37 59.7259 1375.62 59.3955 1377.02 59.3955C1379.11 59.3955 1380.76 60.0563 1381.96 61.3779C1383.17 62.6995 1383.77 64.5734 1383.77 66.9995V68.6704H1374.02C1374.15 69.6711 1374.54 70.4735 1375.2 71.0776C1375.87 71.6818 1376.72 71.9839 1377.74 71.9839C1379.32 71.9839 1380.55 71.4128 1381.44 70.2705L1383.45 72.522C1382.83 73.3905 1382 74.0701 1380.95 74.561C1379.91 75.0425 1378.74 75.2832 1377.47 75.2832ZM1377 62.709C1376.19 62.709 1375.53 62.9827 1375.02 63.5303C1374.52 64.0778 1374.2 64.8613 1374.06 65.8809H1379.75V65.5552C1379.73 64.6489 1379.49 63.9504 1379.01 63.4595C1378.54 62.9591 1377.87 62.709 1377 62.709ZM1394.72 63.5161C1394.16 63.4406 1393.67 63.4028 1393.24 63.4028C1391.7 63.4028 1390.68 63.9268 1390.2 64.9746V75H1386.11V59.6787H1389.97L1390.09 61.5054C1390.91 60.0988 1392.05 59.3955 1393.5 59.3955C1393.95 59.3955 1394.38 59.4569 1394.77 59.5796L1394.72 63.5161ZM1420.97 75H1416.72V66.1641H1408.44V75H1404.19V54.3828H1408.44V62.7373H1416.72V54.3828H1420.97V75ZM1431.48 75.2832C1429.23 75.2832 1427.4 74.5941 1425.98 73.2158C1424.58 71.8376 1423.87 70.0015 1423.87 67.7075V67.311C1423.87 65.7723 1424.17 64.3988 1424.77 63.1904C1425.36 61.9727 1426.2 61.0381 1427.29 60.3867C1428.38 59.7259 1429.63 59.3955 1431.02 59.3955C1433.12 59.3955 1434.77 60.0563 1435.97 61.3779C1437.17 62.6995 1437.78 64.5734 1437.78 66.9995V68.6704H1428.02C1428.15 69.6711 1428.55 70.4735 1429.21 71.0776C1429.88 71.6818 1430.73 71.9839 1431.75 71.9839C1433.32 71.9839 1434.55 71.4128 1435.44 70.2705L1437.45 72.522C1436.84 73.3905 1436.01 74.0701 1434.96 74.561C1433.91 75.0425 1432.75 75.2832 1431.48 75.2832ZM1431.01 62.709C1430.2 62.709 1429.54 62.9827 1429.03 63.5303C1428.53 64.0778 1428.21 64.8613 1428.06 65.8809H1433.76V65.5552C1433.74 64.6489 1433.49 63.9504 1433.02 63.4595C1432.55 62.9591 1431.88 62.709 1431.01 62.709ZM1444.43 75H1440.33V59.6787H1444.43V75ZM1440.09 55.7139C1440.09 55.1003 1440.29 54.5952 1440.7 54.1987C1441.11 53.8022 1441.67 53.604 1442.38 53.604C1443.08 53.604 1443.64 53.8022 1444.05 54.1987C1444.47 54.5952 1444.67 55.1003 1444.67 55.7139C1444.67 56.3369 1444.46 56.8467 1444.04 57.2432C1443.62 57.6396 1443.07 57.8379 1442.38 57.8379C1441.69 57.8379 1441.13 57.6396 1440.71 57.2432C1440.29 56.8467 1440.09 56.3369 1440.09 55.7139ZM1447.22 67.2261C1447.22 64.8755 1447.78 62.9827 1448.89 61.5479C1450.02 60.113 1451.53 59.3955 1453.43 59.3955C1455.11 59.3955 1456.41 59.9714 1457.35 61.123L1457.52 59.6787H1461.23V74.4902C1461.23 75.8307 1460.92 76.9966 1460.31 77.9878C1459.7 78.979 1458.85 79.7342 1457.74 80.2534C1456.64 80.7726 1455.35 81.0322 1453.86 81.0322C1452.74 81.0322 1451.65 80.8057 1450.58 80.3525C1449.51 79.9089 1448.71 79.333 1448.16 78.625L1449.97 76.1328C1450.99 77.2751 1452.23 77.8462 1453.68 77.8462C1454.77 77.8462 1455.61 77.5535 1456.21 76.9683C1456.82 76.3924 1457.12 75.5711 1457.12 74.5044V73.6831C1456.18 74.7498 1454.94 75.2832 1453.4 75.2832C1451.56 75.2832 1450.06 74.5658 1448.92 73.1309C1447.79 71.6865 1447.22 69.7749 1447.22 67.396V67.2261ZM1451.32 67.5234C1451.32 68.9111 1451.59 70.0015 1452.15 70.7944C1452.71 71.578 1453.47 71.9697 1454.44 71.9697C1455.69 71.9697 1456.58 71.5024 1457.12 70.5679V64.125C1456.57 63.1904 1455.69 62.7231 1454.47 62.7231C1453.49 62.7231 1452.72 63.1243 1452.15 63.9268C1451.59 64.7292 1451.32 65.9281 1451.32 67.5234ZM1468.38 61.3496C1469.46 60.0469 1470.83 59.3955 1472.47 59.3955C1475.79 59.3955 1477.48 61.326 1477.53 65.187V75H1473.43V65.3003C1473.43 64.4224 1473.24 63.7757 1472.87 63.3604C1472.49 62.9355 1471.86 62.7231 1470.98 62.7231C1469.78 62.7231 1468.92 63.1857 1468.38 64.1108V75H1464.29V53.25H1468.38V61.3496ZM1485.51 55.9121V59.6787H1488.13V62.6807H1485.51V70.3271C1485.51 70.8936 1485.62 71.2995 1485.84 71.5449C1486.06 71.7904 1486.47 71.9131 1487.08 71.9131C1487.54 71.9131 1487.94 71.88 1488.29 71.814V74.915C1487.49 75.1605 1486.66 75.2832 1485.81 75.2832C1482.94 75.2832 1481.48 73.8341 1481.42 70.936V62.6807H1479.18V59.6787H1481.42V55.9121H1485.51Z" fill="#F55045"/>
<path d="M1441.84 455V434.383H1448.18C1450 434.383 1451.62 434.793 1453.04 435.615C1454.48 436.427 1455.6 437.588 1456.4 439.098C1457.2 440.599 1457.6 442.308 1457.6 444.224V445.173C1457.6 447.089 1457.2 448.793 1456.41 450.285C1455.63 451.776 1454.52 452.933 1453.08 453.754C1451.65 454.575 1450.03 454.991 1448.23 455H1441.84ZM1446.09 437.824V451.587H1448.14C1449.8 451.587 1451.07 451.045 1451.95 449.959C1452.83 448.873 1453.28 447.32 1453.3 445.3V444.21C1453.3 442.114 1452.86 440.528 1451.99 439.452C1451.13 438.367 1449.86 437.824 1448.18 437.824H1446.09ZM1467.48 455.283C1465.24 455.283 1463.41 454.594 1461.99 453.216C1460.58 451.838 1459.88 450.001 1459.88 447.708V447.311C1459.88 445.772 1460.18 444.399 1460.77 443.19C1461.37 441.973 1462.21 441.038 1463.29 440.387C1464.39 439.726 1465.63 439.396 1467.03 439.396C1469.13 439.396 1470.77 440.056 1471.97 441.378C1473.18 442.7 1473.79 444.573 1473.79 447V448.67H1464.03C1464.16 449.671 1464.56 450.473 1465.22 451.078C1465.89 451.682 1466.73 451.984 1467.75 451.984C1469.33 451.984 1470.56 451.413 1471.45 450.271L1473.46 452.522C1472.85 453.39 1472.02 454.07 1470.97 454.561C1469.92 455.042 1468.76 455.283 1467.48 455.283ZM1467.02 442.709C1466.21 442.709 1465.54 442.983 1465.04 443.53C1464.53 444.078 1464.21 444.861 1464.07 445.881H1469.76V445.555C1469.75 444.649 1469.5 443.95 1469.03 443.459C1468.56 442.959 1467.89 442.709 1467.02 442.709ZM1484.42 450.766C1484.42 450.266 1484.17 449.874 1483.67 449.591C1483.18 449.298 1482.39 449.039 1481.29 448.812C1477.65 448.047 1475.83 446.499 1475.83 444.167C1475.83 442.808 1476.39 441.675 1477.51 440.769C1478.64 439.853 1480.12 439.396 1481.94 439.396C1483.89 439.396 1485.44 439.853 1486.6 440.769C1487.77 441.685 1488.36 442.874 1488.36 444.337H1484.26C1484.26 443.752 1484.08 443.271 1483.7 442.893C1483.32 442.506 1482.73 442.312 1481.93 442.312C1481.24 442.312 1480.71 442.468 1480.33 442.78C1479.95 443.091 1479.76 443.488 1479.76 443.969C1479.76 444.422 1479.97 444.791 1480.4 445.074C1480.83 445.347 1481.56 445.588 1482.58 445.796C1483.6 445.994 1484.46 446.221 1485.16 446.476C1487.32 447.269 1488.4 448.642 1488.4 450.596C1488.4 451.993 1487.8 453.126 1486.6 453.995C1485.4 454.854 1483.85 455.283 1481.96 455.283C1480.67 455.283 1479.53 455.057 1478.53 454.604C1477.54 454.141 1476.76 453.513 1476.19 452.72C1475.63 451.918 1475.34 451.054 1475.34 450.129H1479.22C1479.26 450.856 1479.53 451.413 1480.03 451.8C1480.53 452.187 1481.2 452.38 1482.04 452.38C1482.83 452.38 1483.42 452.234 1483.81 451.941C1484.22 451.639 1484.42 451.248 1484.42 450.766ZM1497.42 451.984C1498.17 451.984 1498.79 451.776 1499.26 451.361C1499.73 450.945 1499.98 450.393 1500 449.704H1503.83C1503.82 450.743 1503.54 451.696 1502.98 452.564C1502.43 453.424 1501.66 454.094 1500.69 454.575C1499.73 455.047 1498.66 455.283 1497.49 455.283C1495.3 455.283 1493.57 454.589 1492.31 453.202C1491.04 451.805 1490.41 449.879 1490.41 447.424V447.155C1490.41 444.795 1491.04 442.912 1492.29 441.505C1493.55 440.099 1495.27 439.396 1497.46 439.396C1499.38 439.396 1500.91 439.943 1502.06 441.038C1503.23 442.124 1503.82 443.573 1503.83 445.385H1500C1499.98 444.592 1499.73 443.95 1499.26 443.459C1498.79 442.959 1498.17 442.709 1497.39 442.709C1496.44 442.709 1495.72 443.058 1495.22 443.757C1494.74 444.446 1494.5 445.569 1494.5 447.127V447.552C1494.5 449.128 1494.74 450.261 1495.22 450.95C1495.71 451.639 1496.44 451.984 1497.42 451.984ZM1513.22 455.283C1510.98 455.283 1509.14 454.594 1507.73 453.216C1506.32 451.838 1505.62 450.001 1505.62 447.708V447.311C1505.62 445.772 1505.92 444.399 1506.51 443.19C1507.1 441.973 1507.95 441.038 1509.03 440.387C1510.13 439.726 1511.37 439.396 1512.77 439.396C1514.86 439.396 1516.51 440.056 1517.71 441.378C1518.92 442.7 1519.52 444.573 1519.52 447V448.67H1509.77C1509.9 449.671 1510.3 450.473 1510.96 451.078C1511.63 451.682 1512.47 451.984 1513.49 451.984C1515.07 451.984 1516.3 451.413 1517.19 450.271L1519.2 452.522C1518.58 453.39 1517.75 454.07 1516.71 454.561C1515.66 455.042 1514.5 455.283 1513.22 455.283ZM1512.75 442.709C1511.94 442.709 1511.28 442.983 1510.77 443.53C1510.27 444.078 1509.95 444.861 1509.81 445.881H1515.5V445.555C1515.48 444.649 1515.24 443.95 1514.77 443.459C1514.29 442.959 1513.62 442.709 1512.75 442.709ZM1525.63 439.679L1525.75 441.449C1526.85 440.08 1528.32 439.396 1530.16 439.396C1531.78 439.396 1532.99 439.872 1533.78 440.826C1534.58 441.779 1534.98 443.205 1535 445.102V455H1530.91V445.201C1530.91 444.333 1530.72 443.705 1530.34 443.318C1529.96 442.921 1529.34 442.723 1528.46 442.723C1527.31 442.723 1526.44 443.214 1525.87 444.196V455H1521.77V439.679H1525.63ZM1537.48 447.226C1537.48 444.838 1538.01 442.936 1539.08 441.52C1540.15 440.104 1541.62 439.396 1543.48 439.396C1544.97 439.396 1546.21 439.952 1547.18 441.066V433.25H1551.28V455H1547.59L1547.39 453.372C1546.37 454.646 1545.06 455.283 1543.45 455.283C1541.65 455.283 1540.2 454.575 1539.11 453.159C1538.02 451.734 1537.48 449.756 1537.48 447.226ZM1541.57 447.523C1541.57 448.958 1541.82 450.058 1542.32 450.823C1542.82 451.587 1543.55 451.97 1544.5 451.97C1545.77 451.97 1546.66 451.436 1547.18 450.37V444.323C1546.67 443.257 1545.79 442.723 1544.53 442.723C1542.56 442.723 1541.57 444.323 1541.57 447.523ZM1561.51 455.283C1559.26 455.283 1557.43 454.594 1556.01 453.216C1554.61 451.838 1553.9 450.001 1553.9 447.708V447.311C1553.9 445.772 1554.2 444.399 1554.8 443.19C1555.39 441.973 1556.23 441.038 1557.32 440.387C1558.41 439.726 1559.66 439.396 1561.06 439.396C1563.15 439.396 1564.8 440.056 1566 441.378C1567.21 442.7 1567.81 444.573 1567.81 447V448.67H1558.05C1558.19 449.671 1558.58 450.473 1559.24 451.078C1559.91 451.682 1560.76 451.984 1561.78 451.984C1563.35 451.984 1564.59 451.413 1565.47 450.271L1567.48 452.522C1566.87 453.39 1566.04 454.07 1564.99 454.561C1563.94 455.042 1562.78 455.283 1561.51 455.283ZM1561.04 442.709C1560.23 442.709 1559.57 442.983 1559.06 443.53C1558.56 444.078 1558.24 444.861 1558.1 445.881H1563.79V445.555C1563.77 444.649 1563.52 443.95 1563.05 443.459C1562.58 442.959 1561.91 442.709 1561.04 442.709ZM1578.76 443.516C1578.2 443.441 1577.71 443.403 1577.28 443.403C1575.73 443.403 1574.72 443.927 1574.24 444.975V455H1570.15V439.679H1574.01L1574.12 441.505C1574.95 440.099 1576.08 439.396 1577.54 439.396C1577.99 439.396 1578.42 439.457 1578.81 439.58L1578.76 443.516ZM1605.01 455H1600.76V446.164H1592.48V455H1588.23V434.383H1592.48V442.737H1600.76V434.383H1605.01V455ZM1615.52 455.283C1613.27 455.283 1611.44 454.594 1610.02 453.216C1608.61 451.838 1607.91 450.001 1607.91 447.708V447.311C1607.91 445.772 1608.21 444.399 1608.8 443.19C1609.4 441.973 1610.24 441.038 1611.32 440.387C1612.42 439.726 1613.66 439.396 1615.06 439.396C1617.16 439.396 1618.81 440.056 1620 441.378C1621.21 442.7 1621.82 444.573 1621.82 447V448.67H1612.06C1612.19 449.671 1612.59 450.473 1613.25 451.078C1613.92 451.682 1614.76 451.984 1615.78 451.984C1617.36 451.984 1618.59 451.413 1619.48 450.271L1621.49 452.522C1620.88 453.39 1620.05 454.07 1619 454.561C1617.95 455.042 1616.79 455.283 1615.52 455.283ZM1615.05 442.709C1614.24 442.709 1613.58 442.983 1613.07 443.53C1612.57 444.078 1612.24 444.861 1612.1 445.881H1617.79V445.555C1617.78 444.649 1617.53 443.95 1617.06 443.459C1616.59 442.959 1615.92 442.709 1615.05 442.709ZM1628.47 455H1624.37V439.679H1628.47V455ZM1624.12 435.714C1624.12 435.1 1624.33 434.595 1624.73 434.199C1625.15 433.802 1625.71 433.604 1626.42 433.604C1627.12 433.604 1627.67 433.802 1628.09 434.199C1628.5 434.595 1628.71 435.1 1628.71 435.714C1628.71 436.337 1628.5 436.847 1628.08 437.243C1627.66 437.64 1627.11 437.838 1626.42 437.838C1625.73 437.838 1625.17 437.64 1624.75 437.243C1624.33 436.847 1624.12 436.337 1624.12 435.714ZM1631.26 447.226C1631.26 444.875 1631.82 442.983 1632.93 441.548C1634.06 440.113 1635.57 439.396 1637.46 439.396C1639.14 439.396 1640.45 439.971 1641.39 441.123L1641.56 439.679H1645.27V454.49C1645.27 455.831 1644.96 456.997 1644.35 457.988C1643.74 458.979 1642.89 459.734 1641.78 460.253C1640.68 460.773 1639.38 461.032 1637.9 461.032C1636.78 461.032 1635.68 460.806 1634.62 460.353C1633.55 459.909 1632.74 459.333 1632.2 458.625L1634.01 456.133C1635.03 457.275 1636.26 457.846 1637.72 457.846C1638.8 457.846 1639.65 457.554 1640.25 456.968C1640.86 456.392 1641.16 455.571 1641.16 454.504V453.683C1640.22 454.75 1638.97 455.283 1637.44 455.283C1635.59 455.283 1634.1 454.566 1632.96 453.131C1631.83 451.687 1631.26 449.775 1631.26 447.396V447.226ZM1635.35 447.523C1635.35 448.911 1635.63 450.001 1636.19 450.794C1636.75 451.578 1637.51 451.97 1638.48 451.97C1639.73 451.97 1640.62 451.502 1641.16 450.568V444.125C1640.61 443.19 1639.73 442.723 1638.51 442.723C1637.53 442.723 1636.76 443.124 1636.19 443.927C1635.63 444.729 1635.35 445.928 1635.35 447.523ZM1652.42 441.35C1653.5 440.047 1654.87 439.396 1656.51 439.396C1659.83 439.396 1661.52 441.326 1661.56 445.187V455H1657.47V445.3C1657.47 444.422 1657.28 443.776 1656.91 443.36C1656.53 442.936 1655.9 442.723 1655.02 442.723C1653.82 442.723 1652.95 443.186 1652.42 444.111V455H1648.32V433.25H1652.42V441.35ZM1669.55 435.912V439.679H1672.17V442.681H1669.55V450.327C1669.55 450.894 1669.66 451.299 1669.88 451.545C1670.09 451.79 1670.51 451.913 1671.12 451.913C1671.58 451.913 1671.98 451.88 1672.33 451.814V454.915C1671.52 455.16 1670.7 455.283 1669.85 455.283C1666.98 455.283 1665.51 453.834 1665.46 450.936V442.681H1663.22V439.679H1665.46V435.912H1669.55Z" fill="#4999E2"/>
<path d="M569.5 61.5L521 41V81.5L569.5 61.5Z" fill="white" fill-opacity="0.94"/>
<path d="M569.5 421.5L521 401V441.5L569.5 421.5Z" fill="white" fill-opacity="0.94"/>
<path d="M538.36 9.82373H532.045V27H527.797V9.82373H521.566V6.38281H538.36V9.82373ZM536.944 19.1978C536.944 17.6779 537.237 16.3232 537.822 15.1338C538.408 13.9443 539.248 13.0239 540.343 12.3726C541.447 11.7212 542.726 11.3955 544.18 11.3955C546.248 11.3955 547.933 12.028 549.235 13.293C550.548 14.5579 551.279 16.276 551.43 18.4473L551.458 19.4951C551.458 21.8457 550.802 23.7337 549.49 25.1592C548.178 26.5752 546.417 27.2832 544.208 27.2832C542 27.2832 540.234 26.5752 538.913 25.1592C537.6 23.7432 536.944 21.8174 536.944 19.3818V19.1978ZM541.037 19.4951C541.037 20.9489 541.31 22.0628 541.858 22.8369C542.405 23.6016 543.189 23.9839 544.208 23.9839C545.2 23.9839 545.974 23.6063 546.531 22.8511C547.088 22.0864 547.366 20.8687 547.366 19.1978C547.366 17.7723 547.088 16.6678 546.531 15.8843C545.974 15.1007 545.19 14.709 544.18 14.709C543.18 14.709 542.405 15.1007 541.858 15.8843C541.31 16.6584 541.037 17.862 541.037 19.4951ZM567.771 19.481C567.771 21.841 567.233 23.7337 566.157 25.1592C565.09 26.5752 563.646 27.2832 561.824 27.2832C560.276 27.2832 559.025 26.7451 558.071 25.6689V32.8906H553.979V11.6787H557.774L557.916 13.1797C558.907 11.9902 560.2 11.3955 561.795 11.3955C563.683 11.3955 565.151 12.0941 566.199 13.4912C567.247 14.8883 567.771 16.8141 567.771 19.2686V19.481ZM563.679 19.1836C563.679 17.7581 563.424 16.6584 562.914 15.8843C562.414 15.1102 561.682 14.7231 560.719 14.7231C559.435 14.7231 558.553 15.214 558.071 16.1958V22.4688C558.572 23.4788 559.464 23.9839 560.748 23.9839C562.702 23.9839 563.679 22.3838 563.679 19.1836Z" fill="white"/>
<path d="M602.245 115.575H594.089V124H589.841V103.383H603.265V106.824H594.089V112.148H602.245V115.575ZM604.511 116.198C604.511 114.678 604.803 113.323 605.389 112.134C605.974 110.944 606.814 110.024 607.909 109.373C609.014 108.721 610.293 108.396 611.747 108.396C613.814 108.396 615.499 109.028 616.802 110.293C618.114 111.558 618.846 113.276 618.997 115.447L619.025 116.495C619.025 118.846 618.369 120.734 617.057 122.159C615.744 123.575 613.984 124.283 611.775 124.283C609.566 124.283 607.801 123.575 606.479 122.159C605.167 120.743 604.511 118.817 604.511 116.382V116.198ZM608.603 116.495C608.603 117.949 608.877 119.063 609.424 119.837C609.972 120.602 610.755 120.984 611.775 120.984C612.766 120.984 613.54 120.606 614.097 119.851C614.654 119.086 614.933 117.869 614.933 116.198C614.933 114.772 614.654 113.668 614.097 112.884C613.54 112.101 612.757 111.709 611.747 111.709C610.746 111.709 609.972 112.101 609.424 112.884C608.877 113.658 608.603 114.862 608.603 116.495ZM625.312 108.679L625.439 110.449C626.535 109.08 628.002 108.396 629.843 108.396C631.467 108.396 632.675 108.872 633.468 109.826C634.261 110.779 634.667 112.205 634.686 114.102V124H630.594V114.201C630.594 113.333 630.405 112.705 630.027 112.318C629.65 111.921 629.022 111.723 628.144 111.723C626.992 111.723 626.129 112.214 625.553 113.196V124H621.46V108.679H625.312ZM642.701 104.912V108.679H645.32V111.681H642.701V119.327C642.701 119.894 642.809 120.299 643.026 120.545C643.243 120.79 643.659 120.913 644.272 120.913C644.726 120.913 645.127 120.88 645.476 120.814V123.915C644.674 124.16 643.848 124.283 642.998 124.283C640.128 124.283 638.665 122.834 638.608 119.936V111.681H636.371V108.679H638.608V104.912H642.701ZM665.782 118.591C665.782 117.788 665.499 117.175 664.932 116.75C664.366 116.316 663.346 115.863 661.874 115.391C660.401 114.909 659.235 114.437 658.376 113.975C656.035 112.71 654.864 111.006 654.864 108.863C654.864 107.749 655.176 106.758 655.799 105.889C656.431 105.011 657.333 104.327 658.503 103.836C659.683 103.345 661.005 103.1 662.468 103.1C663.941 103.1 665.253 103.369 666.405 103.907C667.556 104.435 668.449 105.186 669.081 106.158C669.723 107.131 670.044 108.235 670.044 109.472H665.796C665.796 108.528 665.499 107.796 664.904 107.277C664.309 106.748 663.474 106.484 662.397 106.484C661.359 106.484 660.552 106.706 659.976 107.149C659.4 107.584 659.112 108.16 659.112 108.877C659.112 109.547 659.447 110.109 660.118 110.562C660.797 111.015 661.793 111.44 663.105 111.836C665.522 112.563 667.283 113.465 668.387 114.541C669.492 115.617 670.044 116.958 670.044 118.562C670.044 120.347 669.369 121.749 668.019 122.768C666.669 123.778 664.852 124.283 662.567 124.283C660.981 124.283 659.537 123.995 658.234 123.419C656.932 122.834 655.936 122.036 655.247 121.026C654.567 120.016 654.227 118.846 654.227 117.515H658.489C658.489 119.79 659.849 120.927 662.567 120.927C663.577 120.927 664.366 120.724 664.932 120.318C665.499 119.903 665.782 119.327 665.782 118.591ZM676.982 124H672.876V108.679H676.982V124ZM672.635 104.714C672.635 104.1 672.838 103.595 673.244 103.199C673.66 102.802 674.221 102.604 674.929 102.604C675.628 102.604 676.185 102.802 676.6 103.199C677.015 103.595 677.223 104.1 677.223 104.714C677.223 105.337 677.011 105.847 676.586 106.243C676.171 106.64 675.618 106.838 674.929 106.838C674.24 106.838 673.683 106.64 673.258 106.243C672.843 105.847 672.635 105.337 672.635 104.714ZM685.068 120.701H692.559V124H679.843V121.508L687.05 111.992H680.055V108.679H692.332V111.1L685.068 120.701ZM701.947 124.283C699.7 124.283 697.869 123.594 696.453 122.216C695.046 120.838 694.343 119.001 694.343 116.708V116.311C694.343 114.772 694.64 113.399 695.235 112.19C695.83 110.973 696.67 110.038 697.755 109.387C698.85 108.726 700.097 108.396 701.494 108.396C703.589 108.396 705.237 109.056 706.436 110.378C707.644 111.7 708.248 113.573 708.248 116V117.67H698.492C698.624 118.671 699.02 119.473 699.681 120.078C700.351 120.682 701.196 120.984 702.216 120.984C703.792 120.984 705.024 120.413 705.912 119.271L707.922 121.522C707.309 122.39 706.478 123.07 705.43 123.561C704.382 124.042 703.221 124.283 701.947 124.283ZM701.479 111.709C700.668 111.709 700.007 111.983 699.497 112.53C698.997 113.078 698.676 113.861 698.534 114.881H704.227V114.555C704.208 113.649 703.962 112.95 703.49 112.459C703.018 111.959 702.348 111.709 701.479 111.709Z" fill="#939393"/>
<path d="M520.841 477V456.383H528.062C530.564 456.383 532.462 456.864 533.755 457.827C535.048 458.781 535.695 460.182 535.695 462.033C535.695 463.043 535.435 463.935 534.916 464.709C534.397 465.474 533.675 466.035 532.75 466.394C533.807 466.658 534.638 467.192 535.242 467.994C535.855 468.797 536.162 469.778 536.162 470.939C536.162 472.922 535.53 474.423 534.265 475.442C533 476.462 531.197 476.981 528.855 477H520.841ZM525.089 468.022V473.587H528.728C529.729 473.587 530.507 473.351 531.064 472.879C531.631 472.398 531.914 471.737 531.914 470.897C531.914 469.009 530.937 468.051 528.983 468.022H525.089ZM525.089 465.021H528.232C530.375 464.983 531.447 464.128 531.447 462.458C531.447 461.523 531.173 460.853 530.625 460.447C530.087 460.031 529.233 459.824 528.062 459.824H525.089V465.021ZM538.456 469.198C538.456 467.678 538.749 466.323 539.334 465.134C539.919 463.944 540.759 463.024 541.854 462.373C542.959 461.721 544.238 461.396 545.692 461.396C547.759 461.396 549.444 462.028 550.747 463.293C552.059 464.558 552.791 466.276 552.942 468.447L552.97 469.495C552.97 471.846 552.314 473.734 551.002 475.159C549.69 476.575 547.929 477.283 545.72 477.283C543.511 477.283 541.746 476.575 540.424 475.159C539.112 473.743 538.456 471.817 538.456 469.382V469.198ZM542.548 469.495C542.548 470.949 542.822 472.063 543.37 472.837C543.917 473.602 544.701 473.984 545.72 473.984C546.711 473.984 547.486 473.606 548.042 472.851C548.599 472.086 548.878 470.869 548.878 469.198C548.878 467.772 548.599 466.668 548.042 465.884C547.486 465.101 546.702 464.709 545.692 464.709C544.691 464.709 543.917 465.101 543.37 465.884C542.822 466.658 542.548 467.862 542.548 469.495ZM560.39 457.912V461.679H563.01V464.681H560.39V472.327C560.39 472.894 560.499 473.299 560.716 473.545C560.933 473.79 561.348 473.913 561.962 473.913C562.415 473.913 562.816 473.88 563.166 473.814V476.915C562.363 477.16 561.537 477.283 560.688 477.283C557.818 477.283 556.354 475.834 556.298 472.936V464.681H554.061V461.679H556.298V457.912H560.39ZM570.189 457.912V461.679H572.809V464.681H570.189V472.327C570.189 472.894 570.298 473.299 570.515 473.545C570.732 473.79 571.147 473.913 571.761 473.913C572.214 473.913 572.615 473.88 572.964 473.814V476.915C572.162 477.16 571.336 477.283 570.486 477.283C567.617 477.283 566.153 475.834 566.097 472.936V464.681H563.859V461.679H566.097V457.912H570.189ZM574.026 469.198C574.026 467.678 574.319 466.323 574.904 465.134C575.49 463.944 576.33 463.024 577.425 462.373C578.529 461.721 579.808 461.396 581.262 461.396C583.33 461.396 585.015 462.028 586.317 463.293C587.63 464.558 588.361 466.276 588.512 468.447L588.541 469.495C588.541 471.846 587.884 473.734 586.572 475.159C585.26 476.575 583.5 477.283 581.291 477.283C579.082 477.283 577.316 476.575 575.995 475.159C574.682 473.743 574.026 471.817 574.026 469.382V469.198ZM578.119 469.495C578.119 470.949 578.392 472.063 578.94 472.837C579.487 473.602 580.271 473.984 581.291 473.984C582.282 473.984 583.056 473.606 583.613 472.851C584.17 472.086 584.448 470.869 584.448 469.198C584.448 467.772 584.17 466.668 583.613 465.884C583.056 465.101 582.272 464.709 581.262 464.709C580.262 464.709 579.487 465.101 578.94 465.884C578.392 466.658 578.119 467.862 578.119 469.495ZM594.898 461.679L595.026 463.392C596.111 462.061 597.579 461.396 599.43 461.396C601.403 461.396 602.757 462.174 603.494 463.732C604.57 462.174 606.104 461.396 608.096 461.396C609.757 461.396 610.994 461.882 611.806 462.854C612.618 463.817 613.023 465.271 613.023 467.215V477H608.917V467.229C608.917 466.361 608.747 465.729 608.407 465.332C608.067 464.926 607.468 464.723 606.609 464.723C605.382 464.723 604.532 465.308 604.06 466.479L604.074 477H599.982V467.244C599.982 466.356 599.807 465.714 599.458 465.318C599.109 464.921 598.514 464.723 597.674 464.723C596.513 464.723 595.673 465.205 595.153 466.167V477H591.061V461.679H594.898Z" fill="white"/>
</svg>
